<svg width="60" height="60" viewBox="0 0 60 60" fill="none" xmlns="http://www.w3.org/2000/svg">
<circle cx="30" cy="30" r="30" fill="#34A303"/>
<path d="M27.5535 27.5292C27.5535 23.8235 27.5535 20.2065 27.5535 16.6072C27.5535 16.359 27.5535 16.093 27.6067 15.8448C27.8194 14.9228 28.6882 14.32 29.6102 14.4086C30.5677 14.4973 31.2946 15.2952 31.2946 16.3413C31.3123 19.8342 31.2946 23.3271 31.2946 26.82C31.2946 27.0328 31.2946 27.2455 31.2946 27.5292C31.5428 27.5292 31.7556 27.5292 31.9506 27.5292C35.4435 27.5292 38.9364 27.5292 42.4294 27.5292C43.9542 27.5292 44.8939 29.0186 44.1669 30.2952C43.7769 30.9867 43.1563 31.2881 42.3762 31.2881C38.9187 31.2881 35.4613 31.2881 32.0038 31.2881C31.7911 31.2881 31.5783 31.2881 31.2769 31.2881C31.2769 31.5186 31.2769 31.7313 31.2769 31.9441C31.2769 35.4547 31.2769 38.9654 31.2769 42.4938C31.2769 43.398 30.7627 44.0895 29.9294 44.3377C29.1669 44.5682 28.2982 44.32 27.8904 43.6108C27.6776 43.2384 27.5535 42.7774 27.5535 42.3519C27.518 38.9122 27.5357 35.4725 27.5357 32.0505C27.5357 31.8377 27.5357 31.625 27.5357 31.3235C27.3052 31.3235 27.1102 31.3235 26.8974 31.3235C23.4045 31.3235 19.9116 31.3235 16.4187 31.3235C14.9648 31.3235 14.0074 30.0115 14.557 28.7349C14.8939 27.937 15.5499 27.5647 16.4187 27.5647C19.8939 27.5647 23.3691 27.5647 26.8443 27.5647C27.0747 27.5292 27.2875 27.5292 27.5535 27.5292Z" fill="white"/>
</svg>
