<svg width="40" height="35" viewBox="0 0 40 35" fill="none" xmlns="http://www.w3.org/2000/svg">
<path d="M0.0078547 10.9623C0.282769 10.6716 0.549829 10.3731 0.832598 10.0904C3.95877 6.94065 7.07708 3.79877 10.2033 0.649032C10.9573 -0.112873 11.5386 -0.112873 12.3005 0.656887C13.3059 1.66229 14.3113 2.65984 15.3088 3.68095C15.6701 4.05012 16.0786 4.22292 16.597 4.21507C18.8277 4.20721 21.0584 4.20721 23.2892 4.21507C23.7919 4.21507 24.1925 4.05797 24.5381 3.6888C25.5749 2.62056 26.6274 1.57589 27.68 0.523357C28.3712 -0.167856 28.9838 -0.175711 29.6672 0.507648C32.9583 3.82233 36.2494 7.12916 39.5327 10.4438C40.1611 11.0801 40.1532 11.7084 39.5248 12.3525C38.488 13.3972 37.4591 14.4497 36.4065 15.4866C36.0295 15.8557 35.8331 16.2563 35.8174 16.7983C35.786 18.1022 35.4247 19.3118 34.6942 20.4036C34.5685 20.5921 34.5999 20.7178 34.7178 20.8906C35.7703 22.5244 35.4718 24.4488 33.9794 25.6977C33.4767 26.114 32.8876 26.3575 32.2435 26.436C32.0158 26.4596 31.9529 26.546 31.9215 26.7738C31.6859 28.4232 30.5234 29.5936 28.8817 29.8371C28.6461 29.8685 28.5754 29.9785 28.5361 30.2063C28.1905 32.1935 26.706 33.3796 24.703 33.2696C24.1061 33.2382 23.5641 33.0261 23.0693 32.6962C22.9436 32.6098 22.8179 32.5234 22.6844 32.4291C22.1581 33.3324 21.5062 34.0708 20.6186 34.5578C18.812 35.5475 16.6048 34.817 15.7173 32.9554C15.6701 32.8533 15.6151 32.7512 15.5523 32.6255C14.814 32.8297 14.0835 32.9004 13.353 32.6569C11.9627 32.2014 11.1301 31.2509 10.8709 29.8214C10.8159 29.5386 10.7531 29.3815 10.4075 29.3422C9.0329 29.193 7.77615 27.9755 7.50909 26.5852C7.47767 26.4046 7.44625 26.2239 7.42269 26.0825C6.92784 25.9176 6.41729 25.8233 5.97743 25.5877C4.03731 24.5666 3.46392 22.2337 4.66569 20.4036C4.74424 20.2858 4.79922 20.0658 4.73638 19.9637C4.23368 19.0919 4.05302 18.1414 4.01375 17.1518C3.97448 16.3192 3.60531 15.6594 3.03191 15.086C2.1679 14.222 1.29603 13.3501 0.432008 12.4861C0.274914 12.329 0.141385 12.1562 0 11.9912C0.0078547 11.6456 0.0078547 11.3079 0.0078547 10.9623ZM11.35 3.04472C8.47522 5.8567 5.61611 8.65297 2.73344 11.4728C3.41679 12.1483 4.06088 12.7924 4.71282 13.4365C5.73393 14.4419 6.29947 15.6437 6.37016 17.0811C6.39372 17.4895 6.47227 17.898 6.53511 18.4085C7.50124 17.4345 8.56948 16.9868 9.82623 17.1832C11.1065 17.3874 11.9941 18.1336 12.5597 19.2882C14.1306 18.5656 15.6073 18.6441 16.8405 19.8695C18.1051 21.1262 18.2072 22.6343 17.4531 24.221C18.6785 24.8415 19.4168 25.7762 19.5818 27.1351C19.5896 27.2215 19.7389 27.355 19.8253 27.3629C20.8542 27.4728 21.6397 28.0305 22.3388 28.7453C22.9514 29.3658 23.5562 29.9942 24.1925 30.599C24.5852 30.976 25.1193 31.031 25.567 30.7954C26.0226 30.5519 26.3211 30.0413 26.1954 29.5229C26.1247 29.2323 25.9519 28.9417 25.7477 28.7217C25.0801 28.0069 24.3731 27.3314 23.6898 26.6324C23.3049 26.2318 23.2342 25.7134 23.4698 25.2657C23.7055 24.8101 24.2003 24.543 24.7109 24.6687C24.9701 24.7315 25.2371 24.8965 25.4335 25.085C26.1247 25.7448 26.7845 26.4282 27.4522 27.1037C27.7507 27.4021 28.1041 27.5828 28.544 27.52C29.0231 27.4414 29.3609 27.1744 29.518 26.7188C29.6829 26.2396 29.5886 25.7841 29.2273 25.4149C28.544 24.7158 27.8449 24.0325 27.1694 23.3255C26.9887 23.137 26.8238 22.8857 26.761 22.6343C26.6196 22.1238 26.8709 21.6211 27.3186 21.3697C27.7821 21.1105 28.3083 21.1655 28.7246 21.5661C29.4316 22.2573 30.1228 22.9721 30.8218 23.6712C31.3717 24.221 32.0943 24.2603 32.597 23.7811C33.1154 23.2863 33.1233 22.5165 32.5734 21.9667C29.9971 19.3589 27.4129 16.759 24.8287 14.167C24.7344 14.0727 24.5616 13.9942 24.4281 14.002C23.1478 14.0963 21.9382 13.8606 20.7757 13.3344C20.6107 13.2637 20.4301 13.2323 20.2494 13.2165C19.621 13.1694 19.2283 13.5543 18.8356 13.9785C16.8091 16.1464 13.4551 16.437 11.083 14.6618C10.2504 14.0334 10.1718 13.4129 10.8395 12.6117C12.3319 10.8209 13.8243 9.03 15.3245 7.23127C15.513 7.00348 15.6937 6.7757 15.8979 6.5322C15.6309 6.46151 15.4031 6.40653 15.1831 6.33583C14.4762 6.1159 13.9499 5.62891 13.4394 5.1105C12.7246 4.39572 11.9863 3.68095 11.35 3.04472ZM28.6147 2.96617C27.9313 3.63382 27.1615 4.32503 26.4703 5.08694C25.5121 6.14732 24.3496 6.61075 22.9279 6.56362C21.8361 6.52435 20.7364 6.56362 19.6446 6.59504C19.1498 6.61075 18.7492 6.7757 18.4114 7.19985C17.2018 8.70795 15.9529 10.1689 14.7197 11.6535C14.2798 12.1797 13.84 12.7138 13.3766 13.2715C14.2013 13.5622 14.9789 13.5386 15.7487 13.2872C16.487 13.0516 17.0133 12.5332 17.5317 11.9912C18.0815 11.4178 18.757 11.0879 19.5346 10.9308C20.4929 10.7423 21.3569 11.0408 22.2288 11.3786C23.3049 11.8027 24.3888 11.7791 25.4728 11.3707C26.5567 10.9544 27.3108 10.1846 27.892 9.19494C28.2376 8.60584 28.9289 8.44875 29.4865 8.7865C30.0285 9.10854 30.2249 9.78405 29.9107 10.3496C29.3609 11.3628 28.6304 12.2111 27.6564 12.8474C27.4993 12.9495 27.3501 13.0595 27.1851 13.1694C29.1252 15.0703 31.0261 16.9397 32.9269 18.8012C33.3353 18.1257 33.461 17.3246 33.5003 16.4998C33.5396 15.6515 33.8066 14.8817 34.3879 14.2612C35.1891 13.4051 36.0216 12.5803 36.8464 11.7399C36.9485 11.6299 37.0585 11.5199 37.2077 11.3628C34.3172 8.543 31.4659 5.75459 28.6147 2.96617ZM9.76339 25.627C9.78695 26.326 10.0069 26.7188 10.4782 26.9309C10.9652 27.1586 11.4364 27.0801 11.8135 26.7031C12.9603 25.5641 14.107 24.4252 15.2224 23.2627C15.7251 22.7443 15.6858 21.9824 15.1831 21.5111C14.704 21.0555 13.9735 21.0634 13.463 21.5739C12.3554 22.6736 11.2479 23.7811 10.164 24.9122C9.9519 25.14 9.84979 25.4777 9.76339 25.627ZM10.5096 20.8749C10.4782 20.1758 10.2347 19.7909 9.76339 19.5867C9.29211 19.3825 8.83654 19.4532 8.45951 19.8145C7.87041 20.3879 7.28916 20.9613 6.72362 21.5661C6.25234 22.0688 6.2759 22.8307 6.74719 23.2941C7.22632 23.7654 7.94895 23.7654 8.46736 23.2706C9.0329 22.7286 9.59059 22.1788 10.1169 21.5975C10.3289 21.3619 10.431 21.032 10.5096 20.8749ZM14.4998 30.4655C14.6412 30.3948 14.9475 30.3241 15.1517 30.1356C15.7801 29.5543 16.3849 28.9338 16.974 28.3054C17.3824 27.8656 17.351 27.1429 16.9426 26.6952C16.5341 26.2396 15.8115 26.1218 15.3559 26.5303C14.6647 27.1586 14.0049 27.8341 13.3766 28.5254C13.0467 28.8945 13.0545 29.3658 13.298 29.8057C13.5258 30.222 13.8793 30.434 14.4998 30.4655ZM18.9455 32.6412C19.5189 32.6334 20.4222 31.8715 20.5872 31.2509C20.8307 30.3712 20.1237 29.5779 19.2204 29.7193C18.7335 29.7978 17.8773 30.599 17.7673 31.0781C17.5788 31.9186 18.1365 32.6569 18.9455 32.6412Z" fill="white"/>
</svg>
