<svg width="20" height="20" viewBox="0 0 20 20" fill="none" xmlns="http://www.w3.org/2000/svg">
<path d="M14.2812 0.00408384C14.6528 0.0939284 15.0326 0.151102 15.3879 0.285869C18.0506 1.28233 19.0144 4.46364 17.3768 6.73426C17.2216 6.9507 17.046 7.15081 16.854 7.33867C13.8483 10.3199 10.8385 13.297 7.82464 16.2741C6.51781 17.5646 4.47181 17.4094 3.40593 15.9515C2.63816 14.9019 2.7035 13.3991 3.59787 12.4435C4.23903 11.7615 4.91695 11.1162 5.58261 10.4587C7.61228 8.44947 9.64195 6.4443 11.6716 4.43505C11.7206 4.38605 11.7615 4.32479 11.8023 4.27578C12.1494 4.63108 12.4721 4.96595 12.8478 5.34983C12.8233 5.36617 12.7416 5.39067 12.6885 5.44376C10.0708 8.02884 7.45301 10.6221 4.83527 13.2071C4.49631 13.542 4.28395 13.9259 4.32479 14.4201C4.3738 14.9755 4.65967 15.3716 5.15789 15.6003C5.65204 15.8249 6.13393 15.7677 6.58316 15.4614C6.67708 15.3961 6.76693 15.3144 6.84861 15.2327C9.83798 12.2801 12.8233 9.32341 15.8126 6.3708C16.4334 5.75822 16.7642 5.03538 16.7397 4.15735C16.6988 2.7811 15.5799 1.58453 14.2118 1.44976C13.2807 1.35992 12.4802 1.63354 11.8146 2.29104C8.78843 5.28041 5.7623 8.2657 2.74434 11.2673C1.37626 12.6272 1.05363 14.5017 1.91124 16.2169C2.56057 17.5034 3.63462 18.2752 5.06397 18.5039C6.56274 18.7408 7.84098 18.2711 8.91503 17.2093C12.1903 13.9667 15.4696 10.7242 18.7489 7.47752C18.8143 7.41626 18.8551 7.3305 18.9041 7.26107C19.2676 7.6327 19.5902 7.96349 19.9292 8.31062C19.9087 8.33104 19.8638 8.38413 19.8148 8.42905C16.4701 11.737 13.1255 15.0408 9.78897 18.3528C9.36017 18.7816 8.87011 19.1083 8.33512 19.3656C6.35446 20.3049 4.40647 20.2109 2.56874 19.0185C1.06588 18.0465 0.228695 16.6212 0.0408384 14.8284C0.0326707 14.7508 0.0163354 14.6773 0 14.5997C0 14.416 0 14.2363 0 14.0525C0.0122515 14.0076 0.0285869 13.9667 0.0326707 13.9218C0.077593 13.1663 0.269534 12.4476 0.624828 11.7778C0.82902 11.3898 1.02096 10.9733 1.32317 10.6711C4.46364 7.53878 7.62454 4.4228 10.7813 1.29866C11.2551 0.833104 11.7941 0.461474 12.4312 0.257282C12.7702 0.151102 13.1214 0.0857607 13.4644 0C13.734 0.00408384 14.0076 0.00408384 14.2812 0.00408384Z" fill="#0C4467"/>
</svg>
