<svg width="18" height="15" viewBox="0 0 18 15" fill="none" xmlns="http://www.w3.org/2000/svg">
<path d="M4.34657 6.43293C4.51535 6.43293 4.60912 6.43293 4.70914 6.43293C8.65988 6.43293 12.6106 6.43924 16.5614 6.42661C17.2927 6.42661 17.6616 6.88752 17.7428 7.32317C17.8491 7.91667 17.4053 8.51017 16.8114 8.55436C16.6864 8.56699 16.5614 8.56068 16.4363 8.56068C12.5169 8.56068 8.60362 8.56068 4.68414 8.56068C4.59662 8.56068 4.50285 8.56068 4.35282 8.56068C4.45909 8.67432 4.52161 8.74378 4.58412 8.80691C6.00313 10.2212 7.42215 11.6418 8.84741 13.0561C9.15997 13.3655 9.335 13.7127 9.23499 14.161C9.0662 14.9187 8.19104 15.247 7.57843 14.7924C7.48466 14.7229 7.40339 14.6409 7.31588 14.5588C5.25299 12.5068 3.19636 10.4485 1.13972 8.39652C0.539611 7.79671 0.539611 7.20952 1.13972 6.60971C3.20886 4.5451 5.28425 2.48049 7.35339 0.415875C7.83473 -0.0639733 8.39108 -0.133425 8.85367 0.232776C9.3225 0.598975 9.40377 1.26824 9.03495 1.73546C8.95994 1.83017 8.87867 1.91225 8.79741 1.99432C7.39089 3.4023 5.97813 4.80397 4.57162 6.20563C4.5091 6.26245 4.45284 6.31928 4.34657 6.43293Z" fill="#34A303"/>
</svg>
