<svg width="18" height="15" viewBox="0 0 18 15" fill="none" xmlns="http://www.w3.org/2000/svg">
<path d="M13.412 8.56707C13.2433 8.56707 13.1495 8.56707 13.0495 8.56707C9.09873 8.56707 5.14799 8.56076 1.19725 8.57339C0.465862 8.57339 0.0970432 8.11248 0.015778 7.67683C-0.0904918 7.08333 0.353341 6.48983 0.947202 6.44564C1.07223 6.43301 1.19725 6.43932 1.32227 6.43932C5.24176 6.43932 9.15499 6.43932 13.0745 6.43932C13.162 6.43932 13.2558 6.43932 13.4058 6.43932C13.2995 6.32567 13.237 6.25622 13.1745 6.19308C11.7555 4.77879 10.3365 3.35819 8.91119 1.9439C8.59863 1.63452 8.4236 1.28726 8.52362 0.838983C8.6924 0.0813272 9.56756 -0.24699 10.1802 0.207603C10.2739 0.277055 10.3552 0.359134 10.4427 0.441214C12.5056 2.4932 14.5622 4.5515 16.6189 6.60348C17.219 7.20329 17.219 7.79048 16.6189 8.39029C14.5497 10.4549 12.4744 12.5195 10.4052 14.5841C9.92388 15.064 9.36753 15.1334 8.90494 14.7672C8.4361 14.401 8.35484 13.7318 8.72366 13.2645C8.79867 13.1698 8.87994 13.0878 8.9612 13.0057C10.3677 11.5977 11.7805 10.196 13.187 8.79437C13.2495 8.73755 13.3058 8.68072 13.412 8.56707Z" fill="#34A303"/>
</svg>
