<svg width="28" height="35" viewBox="0 0 28 35" fill="none" xmlns="http://www.w3.org/2000/svg">
<path d="M14.2237 0C14.4581 0.0532725 14.6925 0.0958904 14.9163 0.159817C16.035 0.479452 16.8447 1.16134 17.3029 2.23744C17.3881 2.42922 17.484 2.51446 17.7078 2.50381C18.379 2.49315 19.0502 2.49315 19.7215 2.50381C19.9026 2.50381 20.0837 2.51446 20.2648 2.55708C20.6697 2.65297 20.8295 2.87671 20.8402 3.29224C20.8508 3.70776 20.8402 4.12329 20.8402 4.58143C21.8417 4.58143 22.8113 4.57078 23.7702 4.59209C24.1644 4.60274 24.5693 4.6347 24.9528 4.74125C26.4231 5.13546 27.4886 6.5312 27.4886 8.05479C27.4992 15.9711 27.4992 23.8874 27.4886 31.8037C27.4886 33.3699 26.2953 34.6804 24.6865 34.9361C24.4094 34.9787 24.1218 35 23.8341 35C17.1005 35 10.3668 35 3.63318 35C2.8554 35 2.12024 34.8295 1.45967 34.4034C0.511416 33.7747 0 32.8904 0 31.7184C0 28.2131 0 24.6971 0 21.1918C0 16.8767 0 12.5616 0 8.23592C0 6.10502 1.52359 4.58143 3.66514 4.57078C4.53881 4.57078 5.42314 4.57078 6.2968 4.57078C6.40335 4.57078 6.52055 4.56012 6.65906 4.56012C6.65906 4.15525 6.65906 3.77169 6.65906 3.38813C6.65906 2.79148 6.89346 2.53577 7.50076 2.51446C8.23592 2.49315 8.98173 2.50381 9.71689 2.50381C9.91933 2.50381 10.0152 2.43988 10.1005 2.25875C10.6545 1.05479 11.6027 0.319635 12.9132 0.0639269C12.9665 0.0532725 13.0198 0.021309 13.0624 0C13.446 0 13.8402 0 14.2237 0ZM20.8721 6.2755C20.8508 6.31811 20.8402 6.33942 20.8402 6.36073C20.8402 6.91476 20.8295 7.47945 20.8295 8.03349C20.8295 8.84323 20.5099 9.16286 19.6895 9.16286C15.7154 9.16286 11.7412 9.16286 7.76712 9.16286C6.95738 9.16286 6.65906 8.86454 6.65906 8.04414C6.65906 7.45814 6.65906 6.87215 6.65906 6.2755C6.55251 6.26484 6.47793 6.24353 6.414 6.25419C5.39117 6.25419 4.35769 6.22222 3.33486 6.28615C2.34399 6.33942 1.65145 7.15982 1.65145 8.18265C1.65145 16.003 1.65145 23.8341 1.65145 31.6545C1.65145 32.4429 2.02435 32.9757 2.78082 33.21C3.07915 33.3059 3.40944 33.3379 3.71842 33.3379C10.3881 33.3486 17.0685 33.3486 23.7382 33.3379C23.9087 33.3379 24.0791 33.3272 24.2496 33.3059C25.2938 33.1781 25.8265 32.5814 25.8265 31.5266C25.8265 23.7915 25.8265 16.0563 25.8265 8.32116C25.8265 8.22527 25.8265 8.14003 25.8265 8.04414C25.7945 7.13851 25.1126 6.32877 24.2283 6.28615C23.1202 6.23288 22.0122 6.2755 20.8721 6.2755ZM8.35312 7.47945C11.9756 7.47945 15.5556 7.47945 19.1355 7.47945C19.1355 6.37139 19.1355 5.28463 19.1355 4.16591C18.4323 4.16591 17.7504 4.16591 17.0685 4.16591C16.3653 4.16591 16.1202 3.97412 15.9285 3.29224C15.6195 2.19482 14.618 1.47032 13.5312 1.55556C12.5403 1.63014 11.7199 2.34399 11.4216 3.37747C11.2618 3.94216 10.9741 4.16591 10.3881 4.16591C10.175 4.16591 9.95129 4.16591 9.7382 4.16591C9.28006 4.16591 8.81126 4.16591 8.35312 4.16591C8.35312 5.29528 8.35312 6.38204 8.35312 7.47945Z" fill="white"/>
<path d="M17.6971 13.7443C19.2527 13.7443 20.8189 13.7443 22.3744 13.7443C22.8539 13.7443 23.1842 13.968 23.2907 14.3516C23.4186 14.8097 23.1309 15.2892 22.6515 15.3851C22.5023 15.4064 22.3531 15.417 22.2146 15.417C19.2101 15.417 16.2055 15.417 13.2009 15.417C13.0837 15.417 12.9772 15.417 12.86 15.4064C12.3912 15.3531 12.0822 15.0228 12.0929 14.5647C12.1035 14.1172 12.4231 13.7763 12.8919 13.7443C13.1903 13.723 13.4886 13.7336 13.7763 13.7336C15.0868 13.7443 16.3973 13.7443 17.6971 13.7443Z" fill="white"/>
<path d="M17.6758 28.7565C16.1415 28.7565 14.6073 28.7565 13.0624 28.7565C12.4871 28.7565 12.1355 28.4688 12.0928 28.0107C12.0502 27.5632 12.3166 27.2009 12.7534 27.105C12.8386 27.0837 12.9345 27.0837 13.0198 27.0837C16.1415 27.0837 19.2527 27.0837 22.3744 27.0837C22.9285 27.0837 23.2907 27.3927 23.312 27.8615C23.3333 28.2877 23.067 28.6393 22.6514 28.7245C22.5023 28.7565 22.3531 28.7565 22.2146 28.7565C20.7017 28.7565 19.1887 28.7565 17.6758 28.7565Z" fill="white"/>
<path d="M17.6758 22.0868C16.1202 22.0868 14.554 22.0868 12.9985 22.0868C12.4444 22.0868 12.0822 21.7458 12.0928 21.2451C12.1035 20.8189 12.4018 20.4886 12.828 20.446C12.8919 20.4353 12.9665 20.4353 13.0304 20.4353C16.1522 20.4353 19.2633 20.4353 22.3851 20.4353C22.9178 20.4353 23.2588 20.7017 23.3227 21.1385C23.3973 21.6712 23.0137 22.0868 22.4277 22.0868C21.1598 22.0974 19.9026 22.0868 18.6347 22.0868C18.3151 22.0868 17.9954 22.0868 17.6758 22.0868Z" fill="white"/>
<path d="M6.77626 21.0533C7.56469 20.2968 8.38508 19.5084 9.22679 18.7199C9.37595 18.5814 9.56773 18.4429 9.77017 18.3897C10.1324 18.2831 10.5053 18.4855 10.6865 18.8158C10.8782 19.1568 10.825 19.4977 10.5053 19.8067C9.56773 20.7017 8.63014 21.5967 7.68189 22.4916C7.53272 22.6301 7.39422 22.7793 7.2344 22.9072C6.87215 23.2055 6.45662 23.1948 6.12633 22.8752C5.54033 22.2999 4.97565 21.7139 4.41096 21.1172C4.07002 20.7549 4.09132 20.2222 4.41096 19.9132C4.74125 19.5936 5.2207 19.6256 5.60426 19.9878C5.98782 20.3394 6.37138 20.6804 6.77626 21.0533Z" fill="white"/>
<path d="M6.75493 14.4049C7.47944 13.7123 8.23591 12.9985 8.99238 12.274C9.12023 12.1568 9.23743 12.0289 9.36528 11.9224C9.74885 11.6027 10.2176 11.624 10.5586 11.9756C10.8889 12.3166 10.8782 12.7854 10.516 13.1263C9.43987 14.1598 8.36376 15.1826 7.277 16.2055C6.89344 16.5571 6.46726 16.5358 6.09436 16.1735C5.55098 15.6301 5.0076 15.0761 4.47487 14.5114C4.09131 14.1065 4.07 13.5632 4.43226 13.2329C4.7732 12.9239 5.27396 12.9772 5.67883 13.3714C6.01977 13.723 6.38203 14.0533 6.75493 14.4049Z" fill="white"/>
<path d="M6.75495 27.7443C7.586 26.9559 8.43836 26.1461 9.28007 25.3364C9.63166 25.0061 9.98326 24.9528 10.3349 25.1446C10.8356 25.4323 10.9528 26.0396 10.5373 26.4444C9.45054 27.4992 8.35313 28.5327 7.24506 29.5662C6.88281 29.9072 6.44597 29.8752 6.09437 29.5129C5.55099 28.9696 5.00762 28.4155 4.47489 27.8508C4.08067 27.446 4.07002 26.9026 4.42162 26.5723C4.76256 26.2527 5.26332 26.3166 5.66819 26.7108C6.01979 27.0517 6.38204 27.382 6.75495 27.7443Z" fill="white"/>
</svg>
