<svg width="12" height="15" viewBox="0 0 12 15" fill="none" xmlns="http://www.w3.org/2000/svg">
<path d="M5.65203 0C2.52754 0 0 2.52754 0 5.65203C0 7.27778 0.812876 8.75111 1.61305 10.1101C2.59104 11.7995 3.75955 13.3743 5.11858 14.7715C5.4107 15.0762 5.89348 15.0762 6.19818 14.7715C7.39209 13.5903 8.44629 12.2566 9.33537 10.8341C10.288 9.29714 11.3168 7.51897 11.3168 5.65203C11.3041 2.54024 8.77652 0 5.65203 0ZM5.65203 8.92893C3.75955 8.92893 2.22271 7.39209 2.22271 5.49961C2.22271 3.60714 3.75955 2.07029 5.65203 2.07029C7.5445 2.07029 9.08135 3.59443 9.08135 5.49961C9.08135 7.40479 7.5445 8.92893 5.65203 8.92893Z" fill="#34A303"/>
</svg>
