<svg width="163" height="162" viewBox="0 0 163 162" fill="none" xmlns="http://www.w3.org/2000/svg">
<path d="M17.7006 88.7948V82.1213C17.7006 81.5196 17.2083 81.0273 16.6066 81.0273H2.16555C1.56384 81.0273 1.07153 81.5196 1.07153 82.1213V159.906C1.07153 160.508 1.56384 161 2.16555 161H160.579C161.181 161 161.673 160.508 161.673 159.906V82.0666C161.673 81.4649 161.181 80.9726 160.579 80.9726H146.74C146.138 80.9726 145.646 81.4649 145.646 82.0666V88.6307" stroke="#CCCCCC" stroke-width="2" stroke-miterlimit="10"/>
<path d="M1.07153 88.6308H161.673" stroke="#CCCCCC" stroke-width="2" stroke-miterlimit="10"/>
<path d="M9.60477 88.6308V153.068H153.577V88.6308" stroke="#CCCCCC" stroke-width="2" stroke-miterlimit="10"/>
<path d="M25.5227 95.7966V153.068" stroke="#CCCCCC" stroke-width="2" stroke-miterlimit="10" stroke-linecap="round" stroke-linejoin="round"/>
<path d="M41.4952 95.7966V153.068" stroke="#CCCCCC" stroke-width="2" stroke-miterlimit="10" stroke-linecap="round" stroke-linejoin="round"/>
<path d="M57.5226 95.7966V153.068" stroke="#CCCCCC" stroke-width="2" stroke-miterlimit="10" stroke-linecap="round" stroke-linejoin="round"/>
<path d="M73.4953 95.7966V153.068" stroke="#CCCCCC" stroke-width="2" stroke-miterlimit="10" stroke-linecap="round" stroke-linejoin="round"/>
<path d="M89.5228 95.7966V153.068" stroke="#CCCCCC" stroke-width="2" stroke-miterlimit="10" stroke-linecap="round" stroke-linejoin="round"/>
<path d="M105.55 95.7966V153.068" stroke="#CCCCCC" stroke-width="2" stroke-miterlimit="10" stroke-linecap="round" stroke-linejoin="round"/>
<path d="M121.523 95.7966V153.068" stroke="#CCCCCC" stroke-width="2" stroke-miterlimit="10" stroke-linecap="round" stroke-linejoin="round"/>
<path d="M137.55 95.7966V153.068" stroke="#CCCCCC" stroke-width="2" stroke-miterlimit="10" stroke-linecap="round" stroke-linejoin="round"/>
<path d="M92.1483 1H70.9791C70.268 1 69.721 1.71111 69.9398 2.36752L73.6594 15.7692C73.7688 16.2615 74.2064 16.5897 74.6987 16.5897H88.5928C89.0851 16.5897 89.5227 16.2615 89.6321 15.7692L93.2423 2.36752C93.4064 1.65641 92.9141 1 92.1483 1Z" stroke="#CCCCCC" stroke-width="2" stroke-miterlimit="10"/>
<path d="M81.7554 16.5897V23.482C81.7554 24.029 82.1383 24.5214 82.6853 24.5761C83.834 24.7402 85.8032 25.2325 87.0614 26.8735" stroke="#CCCCCC" stroke-width="2" stroke-miterlimit="10" stroke-linecap="round" stroke-linejoin="round"/>
<path d="M8.78445 73.1504C13.6528 70.306 18.5212 67.571 23.4443 64.8359C28.3674 62.1009 33.2904 59.4752 38.2135 56.7949C43.1366 54.1692 48.1144 51.5436 53.0921 48.9727C58.0699 46.4017 63.1024 43.8855 68.1349 41.424C63.2665 44.2684 58.3981 47.0034 53.5298 49.7385C48.6067 52.4735 43.6836 55.0992 38.7605 57.7795C33.8374 60.4051 28.8597 63.0308 23.8819 65.6017C18.8494 68.1727 13.8716 70.6889 8.78445 73.1504Z" fill="#CCCCCC"/>
<path d="M81.3723 32.3436C84.4903 33.9299 87.4988 35.5709 90.6168 37.212L99.8065 42.1898C105.933 45.5265 111.95 48.918 118.077 52.2547C124.094 55.7009 130.165 59.0923 136.183 62.5385L145.208 67.7351C148.217 69.4855 151.225 71.2359 154.179 73.041C151.061 71.4547 148.053 69.8137 144.935 68.1727L135.745 63.1949C129.618 59.8581 123.601 56.4667 117.475 53.1299C111.458 49.6838 105.386 46.2923 99.3689 42.8462L90.3433 37.6496C87.3347 35.8992 84.3262 34.1487 81.3723 32.3436Z" fill="#CCCCCC"/>
<path d="M73.8237 31.7419C73.8237 31.7419 72.5109 37.759 77.9809 40.2752" stroke="#CCCCCC" stroke-width="2" stroke-miterlimit="10" stroke-linecap="round" stroke-linejoin="round"/>
<line x1="13" y1="0.5" x2="151" y2="0.5" stroke="#CCCCCC"/>
</svg>
