<svg width="16" height="15" viewBox="0 0 16 15" fill="none" xmlns="http://www.w3.org/2000/svg">
<path d="M13.4581 15C9.48972 15 5.52129 15 1.55653 15C1.53451 14.9927 1.51248 14.978 1.49046 14.9743C1.00587 14.8972 0.624082 14.6512 0.334068 14.2621C0.146843 14.0162 0.0624082 13.7335 0 13.4435C0 9.86784 0 6.29222 0 2.71659C0.0110132 2.68355 0.0220264 2.65419 0.0293686 2.62115C0.146843 2.00808 0.491924 1.57856 1.04993 1.31424C1.37298 1.16006 1.72173 1.15639 2.06681 1.16373C2.1953 1.1674 2.32746 1.16373 2.46696 1.16373C2.46696 0.763583 2.46696 0.381791 2.46696 0C2.85977 0 3.24156 0 3.6417 0C3.6417 0.392805 3.6417 0.774596 3.6417 1.15639C6.22614 1.15639 8.79222 1.15639 11.3767 1.15639C11.3767 0.767254 11.3767 0.385463 11.3767 0.00367107C11.7768 0.00367107 12.1586 0.00367107 12.5514 0.00367107C12.5514 0.392805 12.5514 0.770925 12.5514 1.16373C12.7753 1.16373 12.9919 1.15272 13.2012 1.1674C13.4104 1.18209 13.6233 1.20044 13.8179 1.26285C14.5558 1.50881 15.0073 2.17327 15.0073 2.98091C15.0073 6.38032 15.0073 9.77974 15.0073 13.1791C15.0073 13.2085 15.0073 13.2379 15.0073 13.2673C14.9853 13.8436 14.7467 14.3098 14.2841 14.6586C14.0419 14.8458 13.7555 14.9339 13.4581 15ZM13.8399 5.51028C9.6072 5.51028 5.39648 5.51028 1.17474 5.51028C1.17474 5.57269 1.17474 5.62775 1.17474 5.67915C1.17474 8.16079 1.17474 10.6424 1.17474 13.1241C1.17474 13.6013 1.39501 13.8253 1.87225 13.8253C5.62775 13.8253 9.38693 13.8253 13.1424 13.8253C13.6197 13.8253 13.8399 13.605 13.8399 13.1241C13.8399 10.6424 13.8399 8.16079 13.8399 5.67915C13.8399 5.62775 13.8399 5.57636 13.8399 5.51028ZM1.17474 4.31718C5.40382 4.31718 9.61821 4.31718 13.8363 4.31718C13.8363 3.82893 13.8436 3.35169 13.8326 2.87445C13.8253 2.60646 13.616 2.37518 13.3443 2.34949C13.0837 2.32746 12.8194 2.34582 12.5441 2.34582C12.5441 2.73862 12.5441 3.12041 12.5441 3.49853C12.1439 3.49853 11.7621 3.49853 11.3693 3.49853C11.3693 3.10573 11.3693 2.72761 11.3693 2.34949C8.78488 2.34949 6.21513 2.34949 3.63436 2.34949C3.63436 2.73862 3.63436 3.11674 3.63436 3.5022C3.24156 3.5022 2.85977 3.5022 2.45962 3.5022C2.45962 3.1094 2.45962 2.72761 2.45962 2.34214C2.20631 2.34214 1.96402 2.3348 1.7254 2.34582C1.42438 2.3605 1.18576 2.59545 1.17841 2.8928C1.1674 3.35903 1.17474 3.8326 1.17474 4.31718Z" fill="#0C4467"/>
<path d="M2.2356 7.89647C2.2356 7.50734 2.2356 7.12922 2.2356 6.74008C2.62106 6.74008 3.00285 6.74008 3.39565 6.74008C3.39565 7.12554 3.39565 7.50734 3.39565 7.89647C3.00652 7.89647 2.6284 7.89647 2.2356 7.89647Z" fill="#0C4467"/>
<path d="M5.73793 7.89648C5.3488 7.89648 4.97068 7.89648 4.58154 7.89648C4.58154 7.51101 4.58154 7.13289 4.58154 6.74376C4.95966 6.74376 5.34513 6.74376 5.73793 6.74376C5.73793 7.12188 5.73793 7.50367 5.73793 7.89648Z" fill="#0C4467"/>
<path d="M6.92725 6.74008C7.32005 6.74008 7.69817 6.74008 8.08363 6.74008C8.08363 7.12554 8.08363 7.50366 8.08363 7.8928C7.70184 7.8928 7.32005 7.8928 6.92725 7.8928C6.92725 7.51468 6.92725 7.12922 6.92725 6.74008Z" fill="#0C4467"/>
<path d="M10.4296 6.74376C10.4296 7.13289 10.4296 7.51101 10.4296 7.90015C10.0441 7.90015 9.666 7.90015 9.27319 7.90015C9.27319 7.52203 9.27319 7.13656 9.27319 6.74376C9.65498 6.74376 10.0368 6.74376 10.4296 6.74376Z" fill="#0C4467"/>
<path d="M11.6189 6.74008C12.008 6.74008 12.3862 6.74008 12.7716 6.74008C12.7716 7.12554 12.7716 7.50366 12.7716 7.8928C12.3935 7.8928 12.0117 7.8928 11.6189 7.8928C11.6189 7.51468 11.6189 7.13289 11.6189 6.74008Z" fill="#0C4467"/>
<path d="M2.2356 10.2386C2.2356 9.84949 2.2356 9.47137 2.2356 9.08591C2.62106 9.08591 2.99918 9.08591 3.39198 9.08591C3.39198 9.46403 3.39198 9.84582 3.39198 10.2386C3.01019 10.2386 2.6284 10.2386 2.2356 10.2386Z" fill="#0C4467"/>
<path d="M4.58521 9.08223C4.97434 9.08223 5.35246 9.08223 5.73792 9.08223C5.73792 9.46769 5.73792 9.84581 5.73792 10.2349C5.3598 10.2349 4.97801 10.2349 4.58521 10.2349C4.58521 9.8605 4.58521 9.47871 4.58521 9.08223Z" fill="#0C4467"/>
<path d="M8.08363 9.08591C8.08363 9.47504 8.08363 9.85316 8.08363 10.2386C7.69817 10.2386 7.32005 10.2386 6.92725 10.2386C6.92725 9.8605 6.92725 9.47871 6.92725 9.08591C7.30904 9.08591 7.69083 9.08591 8.08363 9.08591Z" fill="#0C4467"/>
<path d="M10.4259 10.2423C10.0368 10.2423 9.65866 10.2423 9.26953 10.2423C9.26953 9.85682 9.26953 9.4787 9.26953 9.08957C9.64765 9.08957 10.0331 9.08957 10.4259 9.08957C10.4259 9.46769 10.4259 9.84948 10.4259 10.2423Z" fill="#0C4467"/>
<path d="M11.6189 9.08223C12.008 9.08223 12.3862 9.08223 12.7753 9.08223C12.7753 9.46769 12.7753 9.84581 12.7753 10.2349C12.3972 10.2349 12.0117 10.2349 11.6189 10.2349C11.6189 9.8605 11.6189 9.47871 11.6189 9.08223Z" fill="#0C4467"/>
<path d="M3.39565 11.4317C3.39565 11.8209 3.39565 12.199 3.39565 12.5844C3.01018 12.5844 2.63206 12.5844 2.23926 12.5844C2.23926 12.2063 2.23926 11.8209 2.23926 11.4317C2.61738 11.4317 2.99917 11.4317 3.39565 11.4317Z" fill="#0C4467"/>
<path d="M5.74159 11.4317C5.74159 11.8209 5.74159 12.199 5.74159 12.5844C5.35613 12.5844 4.97801 12.5844 4.58521 12.5844C4.58521 12.2063 4.58521 11.8245 4.58521 11.4317C4.96333 11.4317 5.34512 11.4317 5.74159 11.4317Z" fill="#0C4467"/>
<path d="M8.07995 12.5918C7.69082 12.5918 7.31637 12.5918 6.93091 12.5918C6.93091 12.2063 6.93091 11.8245 6.93091 11.4317C7.30903 11.4317 7.69449 11.4317 8.07995 11.4317C8.07995 11.8209 8.07995 12.2063 8.07995 12.5918Z" fill="#0C4467"/>
<path d="M9.27686 11.4281C9.66599 11.4281 10.0441 11.4281 10.4332 11.4281C10.4332 11.8135 10.4332 12.1916 10.4332 12.5808C10.0551 12.5808 9.66966 12.5808 9.27686 12.5808C9.27686 12.2063 9.27686 11.8209 9.27686 11.4281Z" fill="#0C4467"/>
</svg>
