<svg width="38" height="35" viewBox="0 0 38 35" fill="none" xmlns="http://www.w3.org/2000/svg">
<path d="M7.50231 27.4946C6.23975 27.4946 5.01893 27.4946 3.79811 27.4946C2.83815 27.4946 1.98253 27.1815 1.26256 26.545C0.40694 25.7625 0 24.7816 0 23.6338C0 19.9401 0 16.2359 0 12.5421C0 9.68309 0 6.81364 0 3.95463C0 1.60689 1.60689 0 3.94419 0C13.8151 0 23.6756 0 33.5465 0C35.8942 0 37.4907 1.59646 37.4907 3.94419C37.4907 10.4761 37.4907 17.008 37.4907 23.5504C37.4907 25.8981 35.8942 27.4946 33.5465 27.4946C28.6736 27.4946 23.8112 27.4946 18.9384 27.505C18.7193 27.505 18.448 27.5989 18.281 27.7346C15.4846 29.9466 12.7091 32.1796 9.92309 34.4125C9.79787 34.5065 9.68309 34.6108 9.55788 34.7047C9.14051 35.0177 8.6814 35.1012 8.20141 34.8612C7.72143 34.6212 7.50231 34.2143 7.50231 33.6926C7.50231 31.804 7.50231 29.9153 7.50231 28.0267C7.50231 27.8702 7.50231 27.7137 7.50231 27.4946ZM9.99613 31.1362C10.1631 31.0005 10.257 30.9379 10.3509 30.8649C12.5838 29.0806 14.8272 27.2963 17.0498 25.4912C17.4776 25.1468 17.9158 24.9903 18.4793 24.9903C23.4982 25.0007 28.5276 25.0007 33.5465 25.0007C34.496 25.0007 34.9969 24.5103 34.9969 23.5608C34.9969 17.0185 34.9969 10.4657 34.9969 3.92332C34.9969 2.99466 34.496 2.50425 33.5778 2.50425C23.6965 2.50425 13.8255 2.50425 3.94419 2.50425C2.98423 2.50425 2.50425 2.99466 2.50425 3.94419C2.50425 10.4761 2.50425 17.008 2.50425 23.5399C2.50425 24.4999 2.98423 24.9903 3.93376 24.9903C5.50935 24.9903 7.08494 24.9903 8.66053 24.9903C9.48484 24.9903 9.99613 25.512 9.99613 26.3363C9.99613 27.7763 9.99613 29.2267 9.99613 30.6666C9.99613 30.8023 9.99613 30.9275 9.99613 31.1362Z" fill="white"/>
<path d="M18.7506 12.5004C15.4429 12.5004 12.1352 12.5004 8.82747 12.5004C7.87794 12.5004 7.25188 11.6448 7.58578 10.81C7.77359 10.33 8.1388 10.0692 8.65008 10.017C8.76486 10.0066 8.87964 10.0066 9.00485 10.0066C15.495 10.0066 21.9956 10.0066 28.4858 10.0066C28.6528 10.0066 28.8301 9.99613 28.9867 10.0379C29.6023 10.1631 30.0301 10.7265 29.9884 11.3422C29.9466 11.9682 29.4249 12.4899 28.778 12.5004C27.9224 12.5212 27.0563 12.5108 26.2007 12.5108C23.7173 12.5004 21.2339 12.5004 18.7506 12.5004Z" fill="white"/>
<path d="M13.7629 14.9942C15.3594 14.9942 16.9663 14.9942 18.5627 14.9942C19.4184 14.9942 19.9922 15.5055 19.9922 16.2567C19.9922 16.9872 19.4184 17.4984 18.5836 17.4984C15.3594 17.4984 12.1247 17.4984 8.90051 17.4984C8.06576 17.4984 7.5023 16.9976 7.49187 16.2567C7.48144 15.5055 8.05533 14.9942 8.91094 14.9942C10.5387 14.9942 12.156 14.9942 13.7629 14.9942Z" fill="white"/>
</svg>
