<svg width="662" height="487" viewBox="0 0 662 487" fill="none" xmlns="http://www.w3.org/2000/svg">
<mask id="mask0_16_2" style="mask-type:alpha" maskUnits="userSpaceOnUse" x="0" y="0" width="662" height="487">
<rect width="661.585" height="487" fill="#C4C4C4"/>
</mask>
<g mask="url(#mask0_16_2)">
<path d="M28.1151 328.691V323.381C28.1151 322.939 28.4692 322.496 29.0002 322.496H40.4173C40.8599 322.496 41.3024 322.85 41.3024 323.381V385.069C41.3024 385.512 40.9484 385.954 40.4173 385.954H-269.262C-269.705 385.954 -270.147 385.6 -270.147 385.069V323.381C-270.147 322.939 -269.793 322.496 -269.262 322.496H-258.287C-257.845 322.496 -257.402 322.85 -257.402 323.381V328.603" stroke="#CCCCCC" stroke-miterlimit="10"/>
<path d="M41.3024 328.603H-270.147" stroke="#CCCCCC" stroke-miterlimit="10"/>
<path d="M34.4875 328.603V379.67H-263.686V328.603" stroke="#CCCCCC" stroke-miterlimit="10"/>
<path d="M21.9198 334.267V379.67" stroke="#CCCCCC" stroke-miterlimit="10" stroke-linecap="round" stroke-linejoin="round"/>
<path d="M8.99805 334.267V379.67" stroke="#CCCCCC" stroke-miterlimit="10" stroke-linecap="round" stroke-linejoin="round"/>
<path d="M82.1033 423.746C89.7774 423.746 95.9986 417.525 95.9986 409.851C95.9986 402.176 89.7774 395.955 82.1033 395.955C74.4291 395.955 68.2079 402.176 68.2079 409.851C68.2079 417.525 74.4291 423.746 82.1033 423.746Z" stroke="#CCCCCC" stroke-miterlimit="10"/>
<path d="M82.1032 417.285C86.1603 417.285 89.4492 413.996 89.4492 409.939C89.4492 405.882 86.1603 402.593 82.1032 402.593C78.0462 402.593 74.7573 405.882 74.7573 409.939C74.7573 413.996 78.0462 417.285 82.1032 417.285Z" stroke="#CCCCCC" stroke-miterlimit="10"/>
<path d="M61.8356 390.91H117.24V414.364C117.24 415.338 116.443 416.134 115.47 416.134H98.9192C98.9192 416.134 102.371 393.831 82.1032 393.831C61.8356 393.831 65.0218 416.134 65.0218 416.134H1.56358C1.56358 416.134 4.92676 393.123 -14.8984 393.123C-33.6615 393.123 -31.7144 415.692 -31.7144 415.692H-35.8741V395.513H-29.3247L-25.7845 391.973H-4.01224L-0.914558 395.07H61.393L61.8356 390.91Z" stroke="#CCCCCC" stroke-miterlimit="10"/>
<path d="M61.7471 388.344H117.24V377.281L110.071 346.923C109.894 346.127 109.186 345.596 108.389 345.596H61.7471V388.344Z" stroke="#CCCCCC" stroke-miterlimit="10"/>
<path d="M82.9883 349.136H104.407L108.478 368.076C108.566 368.607 108.212 369.138 107.593 369.138H82.9883V349.136Z" stroke="#CCCCCC" stroke-miterlimit="10"/>
<path d="M107.681 343.206H61.7471V333.913H96.7066C96.7066 333.913 103.787 335.064 108.478 341.879C108.832 342.41 108.389 343.206 107.681 343.206Z" stroke="#CCCCCC" stroke-miterlimit="10"/>
<path d="M86.971 331.435V331.081C86.971 330.284 86.44 329.576 85.6435 329.399L58.4724 322.408C58.2954 322.408 58.2069 322.319 58.0299 322.319H52.454V392.327" stroke="#CCCCCC" stroke-miterlimit="10"/>
<path d="M137.861 367.545C136.18 367.545 134.498 367.368 132.817 367.191C131.135 366.926 129.542 366.66 127.949 366.306C126.356 365.952 124.763 365.509 123.17 365.067C121.576 364.624 119.983 364.093 118.39 363.385C120.072 363.297 121.754 363.474 123.435 363.651C125.117 363.916 126.71 364.182 128.391 364.536C129.984 364.89 131.578 365.333 133.171 365.864C134.675 366.306 136.268 366.926 137.861 367.545Z" fill="#CCCCCC"/>
<path d="M170.962 182.481V171.683C170.962 170.71 170.166 169.913 169.192 169.913H145.827C144.853 169.913 144.057 170.71 144.057 171.683V297.538C144.057 298.511 144.853 299.308 145.827 299.308H402.138C403.111 299.308 403.908 298.511 403.908 297.538V171.595C403.908 170.621 403.111 169.825 402.138 169.825H379.746C378.772 169.825 377.976 170.621 377.976 171.595V182.215" stroke="#CCCCCC" stroke-miterlimit="10"/>
<path d="M143.968 182.215H403.819" stroke="#CCCCCC" stroke-miterlimit="10"/>
<path d="M157.864 182.215V286.474H390.721V182.215" stroke="#CCCCCC" stroke-miterlimit="10"/>
<path d="M183.53 193.81V286.474" stroke="#CCCCCC" stroke-miterlimit="10" stroke-linecap="round" stroke-linejoin="round"/>
<path d="M209.462 193.81V286.474" stroke="#CCCCCC" stroke-miterlimit="10" stroke-linecap="round" stroke-linejoin="round"/>
<path d="M235.306 193.81V286.474" stroke="#CCCCCC" stroke-miterlimit="10" stroke-linecap="round" stroke-linejoin="round"/>
<path d="M261.238 193.81V286.474" stroke="#CCCCCC" stroke-miterlimit="10" stroke-linecap="round" stroke-linejoin="round"/>
<path d="M287.081 193.81V286.474" stroke="#CCCCCC" stroke-miterlimit="10" stroke-linecap="round" stroke-linejoin="round"/>
<path d="M313.013 193.81V286.474" stroke="#CCCCCC" stroke-miterlimit="10" stroke-linecap="round" stroke-linejoin="round"/>
<path d="M338.945 193.81V286.474" stroke="#CCCCCC" stroke-miterlimit="10" stroke-linecap="round" stroke-linejoin="round"/>
<path d="M364.789 193.81V286.474" stroke="#CCCCCC" stroke-miterlimit="10" stroke-linecap="round" stroke-linejoin="round"/>
<path d="M439.841 317.805V307.008C439.841 306.034 439.044 305.238 438.071 305.238H414.705C413.732 305.238 412.935 306.034 412.935 307.008V432.862C412.935 433.835 413.732 434.632 414.705 434.632H671.016C671.99 434.632 672.786 433.835 672.786 432.862V307.008C672.786 306.034 671.99 305.238 671.016 305.238H648.625C647.651 305.238 646.854 306.034 646.854 307.008V317.628" stroke="#CCCCCC" stroke-miterlimit="10"/>
<path d="M412.935 317.628H672.786" stroke="#CCCCCC" stroke-miterlimit="10"/>
<path d="M426.831 317.628V421.799H659.688V317.628" stroke="#CCCCCC" stroke-miterlimit="10"/>
<path d="M452.497 329.134V421.799" stroke="#CCCCCC" stroke-miterlimit="10" stroke-linecap="round" stroke-linejoin="round"/>
<path d="M478.341 329.134V421.799" stroke="#CCCCCC" stroke-miterlimit="10" stroke-linecap="round" stroke-linejoin="round"/>
<path d="M504.273 329.134V421.799" stroke="#CCCCCC" stroke-miterlimit="10" stroke-linecap="round" stroke-linejoin="round"/>
<path d="M530.205 329.134V421.799" stroke="#CCCCCC" stroke-miterlimit="10" stroke-linecap="round" stroke-linejoin="round"/>
<path d="M556.048 329.134V421.799" stroke="#CCCCCC" stroke-miterlimit="10" stroke-linecap="round" stroke-linejoin="round"/>
<path d="M581.98 329.134V421.799" stroke="#CCCCCC" stroke-miterlimit="10" stroke-linecap="round" stroke-linejoin="round"/>
<path d="M607.912 329.134V421.799" stroke="#CCCCCC" stroke-miterlimit="10" stroke-linecap="round" stroke-linejoin="round"/>
<path d="M633.756 329.134V421.799" stroke="#CCCCCC" stroke-miterlimit="10" stroke-linecap="round" stroke-linejoin="round"/>
<path d="M170.962 317.805V307.008C170.962 306.034 170.166 305.238 169.192 305.238H145.827C144.853 305.238 144.057 306.034 144.057 307.008V432.862C144.057 433.835 144.853 434.632 145.827 434.632H402.138C403.111 434.632 403.908 433.835 403.908 432.862V307.008C403.908 306.034 403.111 305.238 402.138 305.238H379.746C378.772 305.238 377.976 306.034 377.976 307.008V317.628" fill="white"/>
<path d="M170.962 317.805V307.008C170.962 306.034 170.166 305.238 169.192 305.238H145.827C144.853 305.238 144.057 306.034 144.057 307.008V432.862C144.057 433.835 144.853 434.632 145.827 434.632H402.138C403.111 434.632 403.908 433.835 403.908 432.862V307.008C403.908 306.034 403.111 305.238 402.138 305.238H379.746C378.772 305.238 377.976 306.034 377.976 307.008V317.628" stroke="#CCCCCC" stroke-miterlimit="10"/>
<path d="M143.968 317.628H403.819" stroke="#CCCCCC" stroke-miterlimit="10"/>
<path d="M157.864 317.628V421.799H390.721V317.628" stroke="#CCCCCC" stroke-miterlimit="10"/>
<path d="M183.53 329.134V421.799" stroke="#CCCCCC" stroke-miterlimit="10" stroke-linecap="round" stroke-linejoin="round"/>
<path d="M209.462 329.134V421.799" stroke="#CCCCCC" stroke-miterlimit="10" stroke-linecap="round" stroke-linejoin="round"/>
<path d="M235.306 329.134V421.799" stroke="#CCCCCC" stroke-miterlimit="10" stroke-linecap="round" stroke-linejoin="round"/>
<path d="M261.238 329.134V421.799" stroke="#CCCCCC" stroke-miterlimit="10" stroke-linecap="round" stroke-linejoin="round"/>
<path d="M287.081 329.134V421.799" stroke="#CCCCCC" stroke-miterlimit="10" stroke-linecap="round" stroke-linejoin="round"/>
<path d="M313.013 329.134V421.799" stroke="#CCCCCC" stroke-miterlimit="10" stroke-linecap="round" stroke-linejoin="round"/>
<path d="M338.945 329.134V421.799" stroke="#CCCCCC" stroke-miterlimit="10" stroke-linecap="round" stroke-linejoin="round"/>
<path d="M364.789 329.134V421.799" stroke="#CCCCCC" stroke-miterlimit="10" stroke-linecap="round" stroke-linejoin="round"/>
<path d="M291.418 40.4302H257.166C256.016 40.4302 255.131 41.5808 255.485 42.6428L261.503 64.3266C261.68 65.1231 262.388 65.6542 263.185 65.6542H285.577C286.373 65.6542 287.081 65.1231 287.258 64.3266L293.1 42.6428C293.454 41.4923 292.568 40.4302 291.418 40.4302Z" stroke="#CCCCCC" stroke-miterlimit="10"/>
<path d="M274.602 65.6541V76.8058C274.602 77.6908 275.221 78.4874 276.107 78.5759C277.965 78.8414 281.151 79.638 283.187 82.2931" stroke="#CCCCCC" stroke-miterlimit="10" stroke-linecap="round" stroke-linejoin="round"/>
<path d="M156.536 157.168C164.413 152.566 172.29 148.141 180.255 143.716C188.221 139.29 196.186 135.042 204.152 130.705C212.117 126.457 220.171 122.209 228.225 118.049C236.279 113.889 244.422 109.818 252.564 105.835C244.687 110.438 236.81 114.863 228.933 119.288C220.968 123.713 213.002 127.962 205.037 132.298C197.071 136.547 189.017 140.795 180.963 144.955C172.821 149.114 164.679 153.186 156.536 157.168Z" fill="#CCCCCC"/>
<path d="M273.894 91.1436C278.939 93.7103 283.806 96.3654 288.851 99.0206L303.72 107.075C313.633 112.473 323.368 117.961 333.281 123.359C343.016 128.935 352.84 134.423 362.576 139.998L377.179 148.406C382.047 151.239 386.915 154.071 391.694 156.991C386.649 154.425 381.782 151.77 376.737 149.114L361.868 141.061C351.955 135.662 342.22 130.174 332.307 124.776C322.572 119.2 312.748 113.712 303.012 108.137L288.409 99.7286C283.629 96.8964 278.762 94.0643 273.894 91.1436Z" fill="#CCCCCC"/>
<path d="M261.769 90.1701C261.769 90.1701 259.645 99.9057 268.495 103.977" stroke="#CCCCCC" stroke-miterlimit="10" stroke-linecap="round" stroke-linejoin="round"/>
<path d="M-56.3188 487.735C-15.7834 479.062 25.2829 472.866 66.4378 468.087C107.593 463.396 149.013 460.122 190.345 457.643C231.765 455.165 273.186 453.661 314.606 452.51C356.027 451.36 397.536 450.74 438.956 450.386C521.885 449.678 604.726 449.943 687.655 448.793C729.076 448.173 770.496 447.2 811.917 444.899L827.405 444.014C832.538 443.66 837.76 443.217 842.893 442.863C853.248 442.155 863.515 441.093 873.87 440.119C876.437 439.942 879.004 439.5 881.57 439.234L889.27 438.261L896.97 437.287C899.537 436.933 902.103 436.491 904.67 436.137L912.37 434.898C914.937 434.455 917.503 434.101 919.981 433.57L935.204 430.472L919.981 433.658C917.415 434.278 914.848 434.632 912.37 435.075L904.67 436.314C902.103 436.756 899.537 437.199 896.97 437.553L889.27 438.526L881.57 439.5C879.004 439.854 876.437 440.208 873.87 440.473C863.604 441.535 853.248 442.686 842.893 443.483C837.76 443.925 832.538 444.368 827.405 444.722L811.917 445.695C770.496 448.173 729.076 449.324 687.655 450.12C646.235 450.917 604.726 451.094 563.306 451.359C521.885 451.537 480.376 451.802 438.956 452.156C356.115 452.776 273.186 454.457 190.434 459.059C149.102 461.361 107.681 464.458 66.5263 468.972C25.2829 473.486 -15.7834 479.327 -56.3188 487.735Z" fill="#CCCCCC"/>
<path d="M407.537 294.086C429.486 293.378 451.524 292.493 473.473 292.05C495.422 291.431 517.46 291.165 539.409 290.811C583.396 290.28 627.383 290.369 671.37 290.634L803.332 291.785C825.281 291.962 847.319 291.873 869.268 291.608C891.217 291.254 913.255 290.546 935.204 288.953C913.255 290.811 891.306 291.785 869.356 292.493C847.407 292.935 825.369 293.201 803.332 293.201H786.87L770.408 293.112L737.395 292.935L671.459 292.493C627.472 292.139 583.485 292.05 539.498 292.316C517.548 292.493 495.511 292.67 473.561 293.024C451.524 293.024 429.486 293.643 407.537 294.086Z" fill="#CCCCCC"/>
<path d="M-35.7856 323.47C-22.1558 319.31 -8.17199 316.212 5.81182 313.469C19.7956 310.725 33.9565 308.512 48.1173 306.477C55.1977 305.592 62.2781 304.618 69.3585 303.91C76.4389 303.113 83.5193 302.405 90.6883 301.786L95.9986 301.343L101.309 300.989L112.018 300.281C115.558 300.016 119.187 299.927 122.727 299.75C126.267 299.573 129.896 299.396 133.436 299.308L112.106 301.166L101.486 302.14L96.1756 302.671L90.8652 303.202C76.7044 304.618 62.5436 306.3 48.3828 308.247C34.222 310.105 20.1497 312.318 6.16586 314.796C-0.82604 316.035 -7.90646 317.363 -14.8099 318.779C-21.8903 320.195 -28.7937 321.788 -35.7856 323.47Z" fill="#CCCCCC"/>
<path d="M522.682 196.376V191.066C522.682 190.623 522.328 190.181 521.797 190.181H510.379C509.937 190.181 509.494 190.535 509.494 191.066V252.754C509.494 253.196 509.848 253.639 510.379 253.639H820.059C820.501 253.639 820.944 253.285 820.944 252.754V191.066C820.944 190.623 820.59 190.181 820.059 190.181H809.084C808.642 190.181 808.199 190.535 808.199 191.066V196.288" stroke="#CCCCCC" stroke-miterlimit="10"/>
<path d="M509.494 196.199H820.944" stroke="#CCCCCC" stroke-miterlimit="10"/>
<path d="M516.309 196.199V247.267H814.572V196.199" stroke="#CCCCCC" stroke-miterlimit="10"/>
<path d="M528.877 201.863V247.267" stroke="#CCCCCC" stroke-miterlimit="10" stroke-linecap="round" stroke-linejoin="round"/>
<path d="M541.887 201.863V247.267" stroke="#CCCCCC" stroke-miterlimit="10" stroke-linecap="round" stroke-linejoin="round"/>
<path d="M554.809 201.863V247.267" stroke="#CCCCCC" stroke-miterlimit="10" stroke-linecap="round" stroke-linejoin="round"/>
<path d="M567.819 201.863V247.267" stroke="#CCCCCC" stroke-miterlimit="10" stroke-linecap="round" stroke-linejoin="round"/>
<path d="M580.83 201.863V247.267" stroke="#CCCCCC" stroke-miterlimit="10" stroke-linecap="round" stroke-linejoin="round"/>
<path d="M593.751 201.863V247.267" stroke="#CCCCCC" stroke-miterlimit="10" stroke-linecap="round" stroke-linejoin="round"/>
<path d="M606.762 201.863V247.267" stroke="#CCCCCC" stroke-miterlimit="10" stroke-linecap="round" stroke-linejoin="round"/>
<path d="M619.772 201.863V247.267" stroke="#CCCCCC" stroke-miterlimit="10" stroke-linecap="round" stroke-linejoin="round"/>
<path d="M632.693 201.863V247.267" stroke="#CCCCCC" stroke-miterlimit="10" stroke-linecap="round" stroke-linejoin="round"/>
<path d="M645.704 201.863V247.267" stroke="#CCCCCC" stroke-miterlimit="10" stroke-linecap="round" stroke-linejoin="round"/>
<path d="M658.714 201.863V247.267" stroke="#CCCCCC" stroke-miterlimit="10" stroke-linecap="round" stroke-linejoin="round"/>
<path d="M468.694 291.342C476.368 291.342 482.589 285.121 482.589 277.447C482.589 269.773 476.368 263.552 468.694 263.552C461.019 263.552 454.798 269.773 454.798 277.447C454.798 285.121 461.019 291.342 468.694 291.342Z" stroke="#CCCCCC" stroke-miterlimit="10"/>
<path d="M468.694 284.881C472.751 284.881 476.039 281.592 476.039 277.535C476.039 273.478 472.751 270.189 468.694 270.189C464.637 270.189 461.348 273.478 461.348 277.535C461.348 281.592 464.637 284.881 468.694 284.881Z" stroke="#CCCCCC" stroke-miterlimit="10"/>
<path d="M565.607 291.342C573.281 291.342 579.502 285.121 579.502 277.447C579.502 269.773 573.281 263.552 565.607 263.552C557.932 263.552 551.711 269.773 551.711 277.447C551.711 285.121 557.932 291.342 565.607 291.342Z" stroke="#CCCCCC" stroke-miterlimit="10"/>
<path d="M565.607 284.881C569.664 284.881 572.953 281.592 572.953 277.535C572.953 273.478 569.664 270.189 565.607 270.189C561.55 270.189 558.261 273.478 558.261 277.535C558.261 281.592 561.55 284.881 565.607 284.881Z" stroke="#CCCCCC" stroke-miterlimit="10"/>
<path d="M489.05 258.595H433.646V282.049C433.646 283.023 434.442 283.819 435.416 283.819H451.966C451.966 283.819 448.514 261.516 468.782 261.516C489.05 261.516 485.864 283.819 485.864 283.819H549.322C549.322 283.819 545.959 260.808 565.784 260.808C584.547 260.808 582.6 283.377 582.6 283.377H586.759V263.198H580.21L576.67 259.657H554.721L551.623 262.755H489.227L489.05 258.595Z" stroke="#CCCCCC" stroke-miterlimit="10"/>
<path d="M489.138 256.029H433.646V244.966L440.814 214.608C440.991 213.812 441.7 213.281 442.496 213.281H489.138V256.029Z" stroke="#CCCCCC" stroke-miterlimit="10"/>
<path d="M467.897 216.821H446.479L442.408 235.761C442.319 236.292 442.673 236.823 443.293 236.823H467.897V216.821V216.821Z" stroke="#CCCCCC" stroke-miterlimit="10"/>
<path d="M443.116 210.803H489.05V201.509H454.09C454.09 201.509 447.01 202.66 442.319 209.475C441.965 210.006 442.408 210.803 443.116 210.803Z" stroke="#CCCCCC" stroke-miterlimit="10"/>
<path d="M463.826 199.031V198.677C463.826 197.881 464.357 197.173 465.153 196.996L492.324 190.004C492.501 190.004 492.59 189.915 492.767 189.915H498.343V259.923" stroke="#CCCCCC" stroke-miterlimit="10"/>
<path d="M688.363 259.038H592.158V264.083H688.363V259.038Z" stroke="#CCCCCC" stroke-miterlimit="10"/>
<path d="M515.247 247.709C547.801 247.709 574.192 221.319 574.192 188.765C574.192 156.211 547.801 129.82 515.247 129.82C482.693 129.82 456.303 156.211 456.303 188.765C456.303 221.319 482.693 247.709 515.247 247.709Z" fill="white" stroke="#CCCCCC" stroke-miterlimit="10"/>
<path d="M614.196 295.148L556.933 237.885C554.898 235.849 554.898 232.486 556.933 230.451C558.969 228.415 562.332 228.415 564.368 230.451L621.631 287.713C623.666 289.749 623.666 293.112 621.631 295.148C619.595 297.184 616.232 297.184 614.196 295.148Z" fill="white" stroke="#CCCCCC" stroke-miterlimit="10"/>
<path d="M478.518 161.594C478.518 161.594 466.393 173.984 469.402 197.615" stroke="#CCCCCC" stroke-miterlimit="10" stroke-linecap="round" stroke-linejoin="round"/>
<path d="M482.058 171.683C482.058 171.683 476.305 177.259 477.279 190.623" stroke="#CCCCCC" stroke-miterlimit="10" stroke-linecap="round" stroke-linejoin="round"/>
<path d="M-256.075 426.047C-239.967 425.427 -223.947 424.985 -207.84 424.542L-159.604 423.48C-127.388 422.861 -95.261 422.595 -63.0452 422.418L-38.8833 422.507C-30.8293 422.507 -22.7753 422.595 -14.7214 422.684L-2.68466 422.772L9.35202 422.949C17.406 423.126 25.46 423.215 33.5139 423.48L57.6758 424.188L81.8377 425.25C85.8205 425.427 89.8917 425.693 93.8744 425.958L105.911 426.755C109.894 427.021 113.965 427.463 117.948 427.817L129.985 429.056L117.948 428.083C113.965 427.729 109.982 427.375 105.911 427.198L93.8744 426.578C89.8917 426.401 85.8205 426.136 81.8377 426.047L57.7643 425.25L33.6024 424.719C1.47509 424.188 -30.7408 424.011 -62.9567 424.1C-95.1725 424.1 -127.3 424.365 -159.516 424.719L-207.751 425.339L-256.075 426.047Z" fill="#CCCCCC"/>
</g>
</svg>
