<svg width="17" height="20" viewBox="0 0 17 20" fill="none" xmlns="http://www.w3.org/2000/svg">
<path d="M6.60761 0C7.62376 0 8.63992 0 9.65607 0C9.6717 0.0104221 9.68734 0.0260552 9.70297 0.0312663C10.6826 0.25013 11.2559 0.958833 11.2559 1.96978C11.2559 2.14174 11.2559 2.31892 11.2559 2.5013C11.3497 2.5013 11.4226 2.5013 11.4904 2.5013C12.5586 2.5013 13.6269 2.49609 14.6952 2.5013C15.5393 2.50651 16.2324 3.16311 16.2533 3.99166C16.2689 4.74726 16.2637 5.50287 16.2585 6.25847C16.2533 6.61282 15.9875 6.86295 15.6331 6.87337C15.5237 6.87858 15.4143 6.87337 15.2944 6.87337C15.2736 7.34237 15.2527 7.79052 15.2319 8.23867C15.1329 10.3283 15.0339 12.4127 14.9297 14.5023C14.8671 15.7686 14.8202 17.0401 14.7316 18.3064C14.6795 19.0776 14.2366 19.5987 13.5175 19.8854C13.3924 19.9375 13.2569 19.9635 13.1266 20C9.79156 20 6.45649 20 3.12142 20C3.07973 19.9844 3.03804 19.9687 2.99635 19.9583C2.24075 19.7916 1.66232 19.2183 1.53726 18.4575C1.48515 18.1449 1.49036 17.8218 1.47473 17.5039C1.3184 14.2366 1.16206 10.9745 1.00573 7.70714C0.990099 7.43095 0.974466 7.15477 0.958833 6.86816C0.865034 6.86816 0.79729 6.86816 0.724336 6.86816C0.239708 6.87858 0 6.63887 0 6.14383C0 5.48723 0 4.82543 0 4.16884C0 3.16311 0.656592 2.5013 1.66232 2.5013C2.70453 2.5013 3.74674 2.5013 4.78895 2.5013C4.8567 2.5013 4.92444 2.5013 5.00782 2.5013C5.00782 2.26681 5.00261 2.05836 5.00782 1.84992C5.03387 1.16206 5.33611 0.620115 5.93017 0.270974C6.1334 0.15112 6.37832 0.0885878 6.60761 0ZM13.9865 6.889C10.0834 6.889 6.15946 6.889 2.21991 6.889C2.25117 7.60813 2.28244 8.31683 2.31892 9.02553C2.41793 11.1256 2.52215 13.2256 2.62116 15.3257C2.66285 16.248 2.70453 17.1704 2.75664 18.098C2.7827 18.5357 3.02762 18.7598 3.46014 18.7598C6.57113 18.7598 9.68734 18.7598 12.7983 18.7598C12.8765 18.7598 12.9547 18.7546 13.0276 18.7337C13.3507 18.6503 13.4914 18.4263 13.5122 17.9625C13.6686 14.6743 13.8301 11.3809 13.9812 8.09276C14.0021 7.69672 13.9865 7.30068 13.9865 6.889ZM1.25065 5.61751C5.8468 5.61751 10.4221 5.61751 15.0078 5.61751C15.0078 5.1433 15.0078 4.68473 15.0078 4.22095C15.0078 3.83533 14.9244 3.75195 14.5388 3.75195C10.2658 3.75195 5.99792 3.75195 1.72486 3.75195C1.67275 3.75195 1.62064 3.75195 1.56853 3.75195C1.38093 3.76759 1.25586 3.87702 1.25586 4.05941C1.24544 4.5753 1.25065 5.08598 1.25065 5.61751ZM10.0052 2.49609C10.0052 2.26681 10.0104 2.05836 10.0052 1.84992C9.98958 1.51641 9.73424 1.25586 9.40073 1.25065C8.55654 1.24544 7.70714 1.24544 6.86295 1.25065C6.57113 1.25065 6.31058 1.4643 6.2741 1.75091C6.24284 1.99062 6.26889 2.24075 6.26889 2.49088C7.51433 2.49609 8.74935 2.49609 10.0052 2.49609Z" fill="#34A303"/>
<path d="M5.62797 12.8244C5.62797 14.1636 5.62797 15.5081 5.62797 16.8473C5.62797 17.1391 5.48206 17.3684 5.23193 17.4622C4.9818 17.556 4.75773 17.5039 4.56492 17.3215C4.41901 17.1808 4.37732 17.0036 4.37732 16.8056C4.38253 15.456 4.37732 14.1115 4.37732 12.7618C4.37732 11.4382 4.37732 10.1198 4.37732 8.79623C4.37732 8.3064 4.81505 7.99373 5.23714 8.17612C5.51333 8.29597 5.62797 8.52005 5.62797 8.81708C5.62797 10.1511 5.62797 11.4851 5.62797 12.8244Z" fill="#34A303"/>
<path d="M7.50387 12.8088C7.50387 11.4695 7.50387 10.1251 7.50387 8.78585C7.50387 8.31685 7.92596 8.01461 8.34284 8.17094C8.58776 8.25953 8.74931 8.48361 8.74931 8.75979C8.75452 9.07245 8.74931 9.38512 8.74931 9.69778C8.74931 12.048 8.74931 14.3981 8.74931 16.7535C8.74931 16.8421 8.75452 16.9359 8.73367 17.0245C8.66593 17.3372 8.36369 17.5508 8.05103 17.5091C7.73836 17.4727 7.50386 17.2069 7.49865 16.8786C7.49344 15.6227 7.49865 14.3669 7.49865 13.1058C7.50386 13.0016 7.50387 12.9078 7.50387 12.8088Z" fill="#34A303"/>
<path d="M11.8811 12.84C11.8811 14.174 11.8811 15.5081 11.8811 16.8473C11.8811 17.1287 11.7613 17.3424 11.5059 17.457C11.261 17.5664 11.0317 17.5195 10.8337 17.3424C10.6774 17.2017 10.6253 17.0193 10.6305 16.816C10.6357 15.7269 10.6305 14.643 10.6305 13.5539C10.6305 11.9698 10.6305 10.3908 10.6305 8.80666C10.6305 8.31682 11.063 8.00416 11.4903 8.17612C11.7404 8.27513 11.8811 8.50442 11.8811 8.81708C11.8811 10.1563 11.8811 11.4956 11.8811 12.84Z" fill="#34A303"/>
</svg>
