<svg width="20" height="20" viewBox="0 0 20 20" fill="none" xmlns="http://www.w3.org/2000/svg">
<path d="M19.9885 3.7263C19.9757 4.89871 19.6041 5.82127 18.8546 6.57726C17.3106 8.12767 15.7601 9.66526 14.2161 11.2157C11.7752 13.6566 9.33427 16.0975 6.89334 18.5385C6.77802 18.6538 6.61785 18.7499 6.4705 18.7819C4.6382 19.1855 2.79949 19.5828 0.960782 19.98C0.377777 20.1081 -0.102722 19.602 0.0190045 19.019C0.416217 17.1995 0.800616 15.3736 1.20423 13.5605C1.24267 13.4003 1.33237 13.2274 1.44769 13.112C4.64461 9.90871 7.84793 6.7118 11.0513 3.51488C11.9097 2.65639 12.7362 1.74664 13.6459 0.952218C15.8947 -1.00822 19.3543 0.22186 19.9181 3.1497C19.9629 3.36753 19.9693 3.59816 19.9885 3.7263ZM11.7816 4.95637C11.7688 4.96919 11.7368 4.99481 11.7047 5.02044C8.72564 7.99953 5.74655 10.9786 2.77386 13.9577C2.70339 14.0282 2.65214 14.1307 2.63292 14.2204C2.4215 15.1814 2.21649 16.1424 2.01147 17.1034C1.93459 17.4622 1.85771 17.8273 1.77443 18.2117C3.14545 17.917 4.47163 17.6351 5.80421 17.3404C5.91312 17.3148 6.01563 17.2315 6.09892 17.1482C9.02675 14.2268 11.9546 11.299 14.8824 8.37112C14.9401 8.31346 14.9978 8.24939 15.0426 8.20455C13.9407 7.11542 12.8643 6.0391 11.7816 4.95637ZM16.1381 7.04494C16.7019 6.50038 17.2721 5.96222 17.8231 5.40484C18.6688 4.54635 18.6431 3.08563 17.7846 2.21433C16.9197 1.34302 15.4398 1.31099 14.5749 2.16307C14.0624 2.6692 13.5498 3.17533 13.0437 3.68786C12.9925 3.73911 12.954 3.79036 12.922 3.8288C14.0111 4.91153 15.081 5.98784 16.1381 7.04494Z" fill="#34A303"/>
</svg>
