<svg width="20" height="16" viewBox="0 0 20 16" fill="none" xmlns="http://www.w3.org/2000/svg">
<path d="M17.9235 0.746277H2.07654C0.931963 0.746277 0 1.67824 0 2.82636V13.1772C0 14.3218 0.931963 15.2537 2.07654 15.2537H17.9235C19.068 15.2537 20 14.3218 20 13.1772V2.82636C20 1.67824 19.068 0.746277 17.9235 0.746277ZM10.4607 7.64209C10.3296 7.74486 10.1665 7.8051 10 7.8051C9.83345 7.8051 9.67045 7.7484 9.53933 7.64209L2.80652 2.30191H17.1935L10.4607 7.64209ZM18.4479 13.1772C18.4479 13.4677 18.214 13.7016 17.9235 13.7016H2.07654C1.78597 13.7016 1.55209 13.4677 1.55209 13.1772V3.29057L8.57548 8.85754C8.97945 9.17647 9.48618 9.35365 10 9.35365C10.5174 9.35365 11.0206 9.17647 11.4245 8.85754L18.4444 3.28703V13.1772H18.4479Z" fill="#34A303"/>
</svg>
