<svg width="15" height="11" viewBox="0 0 15 11" fill="none" xmlns="http://www.w3.org/2000/svg">
<path d="M13.4426 0.0596924H1.55741C0.698972 0.0596924 0 0.758665 0 1.61976V9.38287C0 10.2413 0.698972 10.9403 1.55741 10.9403H13.4426C14.301 10.9403 15 10.2413 15 9.38287V1.61976C15 0.758665 14.301 0.0596924 13.4426 0.0596924ZM7.8455 5.23156C7.74717 5.30863 7.62491 5.35381 7.5 5.35381C7.37509 5.35381 7.25284 5.31129 7.1545 5.23156L2.10489 1.22642H12.8951L7.8455 5.23156ZM13.8359 9.38287C13.8359 9.6008 13.6605 9.77621 13.4426 9.77621H1.55741C1.33948 9.77621 1.16407 9.6008 1.16407 9.38287V1.96791L6.43161 6.14314C6.73459 6.38234 7.11463 6.51522 7.5 6.51522C7.88802 6.51522 8.26541 6.38234 8.56839 6.14314L13.8333 1.96526V9.38287H13.8359Z" fill="#0C4467"/>
</svg>
