<svg width="35" height="35" viewBox="0 0 35 35" fill="none" xmlns="http://www.w3.org/2000/svg">
<path d="M26.4551 35C25.9766 35 25.498 35 25.0195 35C24.8281 34.9658 24.6436 34.9385 24.4521 34.9043C21.8887 34.501 19.8379 33.2432 18.2998 31.1514C18.1562 30.9531 18.0059 30.8916 17.7598 30.8916C12.2979 30.8984 6.8291 30.8916 1.36719 30.9053C0.745117 30.9121 0.273438 30.7412 0 30.1465C0 21.0547 0 11.9629 0 2.87109C0.273438 2.27637 0.745117 2.0918 1.38086 2.1123C2.75488 2.13965 4.13574 2.11914 5.5166 2.11914C5.74219 2.11914 5.96777 2.11914 6.21387 2.11914C6.26855 1.31934 5.98145 0.423828 6.97266 0C7.15723 0 7.33496 0 7.51953 0C8.52441 0.423828 8.20996 1.34668 8.28516 2.09863C9.66602 2.09863 11.0059 2.09863 12.3662 2.09863C12.4141 1.31934 12.1406 0.423828 13.125 0C13.3096 0 13.4873 0 13.6719 0C14.6768 0.423828 14.3623 1.34668 14.4375 2.09863C15.8184 2.09863 17.1582 2.09863 18.5186 2.09863C18.5664 1.31934 18.293 0.423828 19.2773 0C19.4619 0 19.6396 0 19.8242 0C20.8291 0.423828 20.5146 1.34668 20.5898 2.09863C21.9707 2.09863 23.3105 2.09863 24.6709 2.09863C24.7188 1.31934 24.4453 0.423828 25.4297 0C25.6143 0 25.792 0 25.9766 0C26.9678 0.423828 26.6875 1.31934 26.7354 2.11914C26.8789 2.11914 27.002 2.11914 27.125 2.11914C28.6289 2.11914 30.1328 2.11914 31.6367 2.11914C32.6006 2.11914 32.9492 2.47461 32.9492 3.43848C32.9492 8.81152 32.9492 14.1846 32.9424 19.5645C32.9424 19.8516 33.0107 20.084 33.1885 20.3096C33.8105 21.1162 34.2822 22.0186 34.5557 22.9961C34.7402 23.6592 34.8564 24.3428 35 25.0195C35 25.498 35 25.9766 35 26.4551C34.8838 27.0566 34.8154 27.6719 34.6445 28.2529C33.79 31.1514 31.9648 33.209 29.1553 34.3232C28.3008 34.665 27.3574 34.7812 26.4551 35ZM2.06445 28.8203C7.0752 28.8203 12.0518 28.8203 17.0283 28.8203C16.8711 28.1367 16.7207 27.4736 16.5635 26.7969C16.249 26.7969 15.9277 26.7969 15.6133 26.7969C14.9502 26.79 14.4922 26.3662 14.4922 25.7715C14.4922 25.1768 14.957 24.7598 15.6201 24.7529C15.9482 24.7529 16.2695 24.7529 16.5635 24.7529C16.7275 24.042 16.8779 23.3857 17.0283 22.7021C16.4951 22.7021 15.9824 22.7158 15.4697 22.6953C14.9229 22.6748 14.499 22.2373 14.4854 21.7041C14.4717 21.1846 14.8545 20.6924 15.3809 20.6719C16.1396 20.6377 16.9121 20.6172 17.6641 20.6855C17.9854 20.7129 18.1152 20.624 18.2793 20.3984C21.0342 16.502 26.4688 15.3945 30.5361 17.8965C30.6387 17.958 30.7412 18.0127 30.8711 18.0879C30.8711 15.4766 30.8711 12.9199 30.8711 10.3564C21.2598 10.3564 11.6621 10.3564 2.05762 10.3564C2.06445 16.5088 2.06445 22.6543 2.06445 28.8203ZM25.7715 32.9492C29.7158 32.9492 32.9492 29.7227 32.9492 25.7715C32.9492 21.8271 29.7227 18.5938 25.7715 18.5938C21.8271 18.5938 18.5938 21.8203 18.5938 25.7715C18.5938 29.7158 21.8203 32.9492 25.7715 32.9492ZM8.27148 4.18359C8.27148 4.51172 8.27832 4.83301 8.27148 5.14746C8.25781 5.7627 7.83398 6.20703 7.25977 6.21387C6.67188 6.2207 6.23438 5.76953 6.22754 5.13379C6.2207 4.81934 6.22754 4.50488 6.22754 4.19043C4.8125 4.19043 3.44531 4.19043 2.07129 4.19043C2.07129 5.55762 2.07129 6.89746 2.07129 8.25098C11.6826 8.25098 21.2803 8.25098 30.8779 8.25098C30.8779 6.88379 30.8779 5.53711 30.8779 4.19727C29.4834 4.19727 28.1162 4.19727 26.7285 4.19727C26.7285 4.53223 26.7354 4.83984 26.7285 5.14746C26.7148 5.7627 26.291 6.21387 25.7168 6.2207C25.1289 6.22754 24.6914 5.77637 24.6777 5.14746C24.6709 4.83301 24.6777 4.51855 24.6777 4.19727C23.29 4.19727 21.9434 4.19727 20.5762 4.19727C20.5762 4.32031 20.5762 4.42285 20.5762 4.52539C20.5693 5.74219 20.2754 6.22754 19.5439 6.2207C18.8262 6.21387 18.5322 5.72852 18.5254 4.53906C18.5254 4.42285 18.5254 4.2998 18.5254 4.19043C17.1309 4.19043 15.791 4.19043 14.4238 4.19043C14.4238 4.50488 14.4238 4.79883 14.4238 5.09277C14.417 5.75586 14 6.2207 13.3984 6.2207C12.8037 6.2207 12.3799 5.7627 12.373 5.09277C12.373 4.79199 12.373 4.49121 12.373 4.18359C10.9854 4.18359 9.64551 4.18359 8.27148 4.18359Z" fill="white"/>
<path d="M8.26465 14.4922C7.92285 14.4922 7.58105 14.499 7.23926 14.4922C6.65137 14.4717 6.2207 14.0205 6.2207 13.4668C6.22754 12.9063 6.6582 12.4619 7.25293 12.4551C7.93652 12.4414 8.62012 12.4414 9.30371 12.4551C9.8916 12.4688 10.3223 12.9199 10.3223 13.4805C10.3154 14.041 9.87793 14.4785 9.29004 14.499C8.94824 14.499 8.60645 14.4922 8.26465 14.4922Z" fill="white"/>
<path d="M16.5293 14.4922C16.2012 14.4922 15.8662 14.499 15.5381 14.4922C14.9297 14.4717 14.4854 14.0273 14.499 13.4531C14.5059 12.8926 14.9502 12.4619 15.5381 12.4482C16.208 12.4346 16.8848 12.4346 17.5547 12.4482C18.1631 12.4619 18.6074 12.9131 18.5938 13.4873C18.5869 14.0479 18.1426 14.4785 17.5547 14.4922C17.2129 14.499 16.8711 14.4922 16.5293 14.4922Z" fill="white"/>
<path d="M24.7187 14.4922C24.3906 14.4922 24.0557 14.499 23.7275 14.4922C23.1396 14.4717 22.7021 14.0342 22.6953 13.4805C22.6885 12.9199 23.126 12.4619 23.7139 12.4551C24.3974 12.4414 25.081 12.4414 25.7646 12.4551C26.3525 12.4688 26.79 12.9063 26.7969 13.4668C26.8037 14.041 26.3594 14.4785 25.7441 14.499C25.4023 14.499 25.0605 14.4922 24.7187 14.4922Z" fill="white"/>
<path d="M8.28516 16.543C8.61328 16.543 8.94824 16.5361 9.27637 16.543C9.88477 16.5635 10.3291 17.0078 10.3154 17.582C10.3086 18.1426 9.8711 18.5801 9.27637 18.5869C8.60645 18.6006 7.92969 18.6006 7.25977 18.5869C6.65137 18.5732 6.20703 18.1221 6.22071 17.5479C6.22754 16.9873 6.66504 16.5566 7.25977 16.543C7.60156 16.5361 7.94336 16.543 8.28516 16.543Z" fill="white"/>
<path d="M16.5088 18.5938C16.1807 18.5938 15.8457 18.6006 15.5176 18.5938C14.9297 18.5732 14.4922 18.1357 14.4922 17.5752C14.4922 17.0146 14.9297 16.5635 15.5176 16.5566C16.2012 16.543 16.8848 16.543 17.5684 16.5566C18.1562 16.5703 18.5938 17.0146 18.5938 17.5752C18.5938 18.1357 18.1562 18.5801 17.5684 18.6006C17.2129 18.6006 16.8643 18.5938 16.5088 18.5938Z" fill="white"/>
<path d="M8.27148 20.6445C8.61328 20.6445 8.95508 20.6377 9.29688 20.6445C9.88477 20.665 10.3223 21.1094 10.3223 21.6631C10.3223 22.2236 9.88477 22.6748 9.29688 22.6816C8.61328 22.6953 7.92969 22.6953 7.24609 22.6816C6.6582 22.668 6.2207 22.2236 6.2207 21.6631C6.2207 21.1025 6.6582 20.6582 7.24609 20.6445C7.58789 20.6377 7.92969 20.6445 8.27148 20.6445Z" fill="white"/>
<path d="M8.24413 26.7969C7.916 26.7969 7.58104 26.8037 7.25292 26.7969C6.66503 26.7764 6.22753 26.3389 6.22069 25.7852C6.21385 25.2246 6.65135 24.7734 7.23925 24.7598C7.92284 24.7461 8.60643 24.7461 9.29003 24.7598C9.87792 24.7734 10.3154 25.2109 10.3223 25.7715C10.3291 26.3457 9.88475 26.7832 9.26952 26.8037C8.92772 26.8037 8.58592 26.7969 8.24413 26.7969Z" fill="white"/>
<path d="M26.7969 24.7461C27.8496 24.7461 28.8477 24.7324 29.8525 24.7529C30.6113 24.7666 31.0967 25.4775 30.8232 26.1475C30.666 26.5371 30.3584 26.7832 29.9346 26.79C28.5332 26.8037 27.1318 26.8105 25.7305 26.79C25.1699 26.7832 24.7529 26.3457 24.7529 25.7646C24.7393 24.3975 24.7393 23.0303 24.7529 21.6631C24.7598 21.0752 25.2178 20.6445 25.7783 20.6445C26.3389 20.6445 26.79 21.082 26.7969 21.6699C26.8105 22.5586 26.8037 23.4473 26.8037 24.3359C26.7969 24.459 26.7969 24.582 26.7969 24.7461Z" fill="white"/>
</svg>
