<svg width="36" height="35" viewBox="0 0 36 35" fill="none" xmlns="http://www.w3.org/2000/svg">
<path d="M0.0085898 3.84956C0.0944878 3.53174 0.163206 3.21391 0.274874 2.90468C0.893339 1.17813 2.46527 0.0185085 4.2949 0.00991865C8.68429 -0.00726096 13.0737 0.00132885 17.4631 0.00991865C18.3306 0.00991865 18.9577 0.628384 18.9577 1.4616C18.9577 2.29481 18.3478 2.90468 17.4631 2.91327C15.6334 2.93045 13.8038 2.92186 11.9742 2.92186C9.5175 2.92186 7.06082 2.92186 4.60413 2.92186C4.01144 2.92186 3.46169 3.0593 3.16964 3.60905C3.00643 3.92687 2.92912 4.322 2.92912 4.69136C2.92053 10.3091 2.92912 15.944 2.92912 21.5789C2.92912 24.5166 2.92912 27.4543 2.92912 30.392C2.92912 30.9074 3.02361 31.3627 3.42733 31.7235C3.77951 32.0327 4.20041 32.0928 4.63849 32.0928C8.82173 32.0928 13.005 32.0928 17.1882 32.0928C17.4029 32.0928 17.6263 32.0842 17.8324 32.1272C18.5368 32.2732 19.0006 32.9346 18.9405 33.6819C18.889 34.3691 18.3221 34.9361 17.6263 34.9876C17.5318 34.9962 17.4459 34.9962 17.3514 34.9962C13.0565 34.9962 8.7616 35.0048 4.45811 34.9962C2.30207 34.9962 0.601286 33.639 0.111667 31.5774C0.0773082 31.44 0.042949 31.294 0 31.1565C0.0085898 22.0514 0.0085898 12.9462 0.0085898 3.84956Z" fill="#0C4467"/>
<path d="M30.0987 18.9504C29.8667 18.9504 29.7379 18.9504 29.6005 18.9504C24.1717 18.9504 18.7429 18.9418 13.3142 18.959C12.3092 18.959 11.8024 18.332 11.6907 17.7393C11.5447 16.9318 12.1546 16.1244 12.9706 16.0643C13.1424 16.0471 13.3142 16.0557 13.486 16.0557C18.8718 16.0557 24.249 16.0557 29.6348 16.0557C29.7551 16.0557 29.8839 16.0557 30.0901 16.0557C29.944 15.9011 29.8581 15.8066 29.7723 15.7207C27.8224 13.7966 25.8725 11.8638 23.914 9.93973C23.4845 9.51883 23.244 9.04639 23.3814 8.43652C23.6134 7.41433 24.8159 6.96766 25.6577 7.59472C25.7866 7.6892 25.8982 7.80087 26.0185 7.91254C28.8531 10.7042 31.6792 13.5045 34.5052 16.2962C35.3299 17.1122 35.3299 17.9111 34.5052 18.7271C31.662 21.536 28.8102 24.3448 25.967 27.1537C25.3056 27.8065 24.5411 27.901 23.9054 27.4028C23.2612 26.9046 23.1495 25.9941 23.6563 25.3584C23.7594 25.2296 23.8711 25.1179 23.9827 25.0062C25.9154 23.0907 27.8567 21.1838 29.7894 19.2768C29.8753 19.1909 29.9526 19.1051 30.0987 18.9504Z" fill="#0C4467"/>
</svg>
