<svg width="16" height="21" viewBox="0 0 16 21" fill="none" xmlns="http://www.w3.org/2000/svg">
<path d="M4.4314 7.89464C4.47032 7.77231 4.53704 7.66667 4.66492 7.62775C4.76501 7.59995 4.87621 7.59439 4.98186 7.58327C5.52675 7.53322 6.07165 7.48318 6.62211 7.4387C6.66659 7.43314 6.68883 7.41646 6.70551 7.37754C6.9446 6.81596 7.18925 6.24882 7.42834 5.68724C7.47838 5.57047 7.55066 5.48707 7.67299 5.45371C7.85091 5.40367 8.02328 5.48707 8.10112 5.67056C8.26237 6.04865 8.42361 6.4323 8.59042 6.8104C8.67382 6.99944 8.75722 7.19405 8.83507 7.3831C8.85175 7.42202 8.86843 7.4387 8.90735 7.4387C9.30768 7.47206 9.70802 7.51098 10.1139 7.54434C10.3363 7.56658 10.5532 7.58327 10.7756 7.60551C10.9313 7.62219 11.0369 7.70003 11.0814 7.84459C11.1314 7.99472 11.0869 8.12817 10.9702 8.23381C10.5087 8.6397 10.0472 9.0456 9.58569 9.44593C9.54121 9.48485 9.53009 9.51265 9.54121 9.57382C9.68022 10.1688 9.81366 10.7693 9.95266 11.3642C9.98603 11.5199 9.95267 11.6533 9.81922 11.7534C9.68578 11.8479 9.54677 11.8424 9.41333 11.7645C8.88511 11.4476 8.36245 11.1362 7.83423 10.8193C7.78975 10.7915 7.75639 10.7915 7.71191 10.8193C7.18925 11.1362 6.66659 11.4476 6.13837 11.759C5.96045 11.8646 5.7714 11.8368 5.65464 11.6923C5.58236 11.5977 5.56568 11.4921 5.58792 11.3809C5.72136 10.7859 5.86037 10.1854 5.99937 9.5905C6.01605 9.52934 6.00493 9.49597 5.95489 9.45149C5.49339 9.05116 5.03746 8.65082 4.58152 8.25049C4.5148 8.18933 4.47588 8.11704 4.44252 8.03364C4.4314 7.97804 4.4314 7.93912 4.4314 7.89464Z" fill="#CCCCCC"/>
<path d="M0 10.9805C0 8.43397 0 5.8874 0 3.34083C0 2.3678 0.411454 1.63941 1.29552 1.2224C1.57353 1.08896 1.90714 1.01111 2.21852 1.01111C5.91604 0.994433 9.61357 0.994433 13.3111 1.00555C14.5121 1.00555 15.4573 1.94523 15.5129 3.14067C15.5185 3.21851 15.5185 3.29079 15.5185 3.36863C15.5185 8.45621 15.5185 13.5382 15.524 18.6258C15.524 19.4153 15.246 20.0603 14.6233 20.5441C13.8393 21.1613 12.7273 21.1501 11.9433 20.5218C10.759 19.571 9.58576 18.6091 8.40701 17.6472C7.96219 17.2858 7.5563 17.2914 7.11148 17.6528C5.93828 18.6091 4.7762 19.571 3.58632 20.5107C2.33528 21.4949 0.489297 20.8721 0.0834028 19.3375C0.0166806 19.0929 0.00556019 18.8315 0.00556019 18.5758C0 16.0459 0 13.516 0 10.9805ZM14.184 11.0139C14.184 8.44509 14.184 5.88184 14.184 3.31303C14.184 2.69029 13.8226 2.33444 13.1999 2.33444C9.56908 2.33444 5.94384 2.33444 2.31304 2.33444C2.22408 2.33444 2.12955 2.33444 2.04615 2.35668C1.57909 2.45676 1.33445 2.80706 1.33445 3.35751C1.33445 8.43953 1.33445 13.5271 1.33445 18.6091C1.33445 18.687 1.33445 18.7592 1.34001 18.8371C1.36781 19.1596 1.52905 19.3931 1.81818 19.5377C2.2074 19.7323 2.54101 19.6155 2.85238 19.3597C3.99778 18.4256 5.14317 17.4915 6.29413 16.563C7.21712 15.8179 8.31248 15.829 9.22991 16.5685C9.85821 17.0745 10.481 17.586 11.1037 18.092C11.6486 18.5313 12.1879 18.9817 12.7384 19.4154C13.2499 19.8157 13.9894 19.5933 14.1507 18.9928C14.184 18.8593 14.184 18.7203 14.184 18.5813C14.184 16.0626 14.184 13.5382 14.184 11.0139Z" fill="#CCCCCC"/>
</svg>
