<svg width="16" height="21" viewBox="0 0 16 21" fill="none" xmlns="http://www.w3.org/2000/svg">
<path d="M4.4314 6.89683C4.47032 6.77451 4.53704 6.66887 4.66492 6.62994C4.76501 6.60214 4.87621 6.59658 4.98186 6.58546C5.52675 6.53542 6.07165 6.48538 6.62211 6.4409C6.66659 6.43534 6.68883 6.41866 6.70551 6.37974C6.9446 5.81816 7.18925 5.25102 7.42834 4.68944C7.47838 4.57267 7.55066 4.48927 7.67299 4.45591C7.85091 4.40587 8.02328 4.48927 8.10112 4.67275C8.26237 5.05085 8.42361 5.4345 8.59042 5.8126C8.67382 6.00164 8.75722 6.19625 8.83507 6.3853C8.85175 6.42422 8.86843 6.4409 8.90735 6.4409C9.30768 6.47426 9.70802 6.51318 10.1139 6.54654C10.3363 6.56878 10.5532 6.58546 10.7756 6.6077C10.9313 6.62438 11.0369 6.70223 11.0814 6.84679C11.1314 6.99692 11.0869 7.13036 10.9702 7.23601C10.5087 7.6419 10.0472 8.04779 9.58569 8.44813C9.54121 8.48705 9.53009 8.51485 9.54121 8.57601C9.68022 9.17095 9.81366 9.77146 9.95266 10.3664C9.98603 10.5221 9.95267 10.6555 9.81922 10.7556C9.68578 10.8501 9.54677 10.8446 9.41333 10.7667C8.88511 10.4498 8.36245 10.1384 7.83423 9.8215C7.78975 9.7937 7.75639 9.7937 7.71191 9.8215C7.18925 10.1384 6.66659 10.4498 6.13837 10.7612C5.96045 10.8668 5.7714 10.839 5.65464 10.6944C5.58236 10.5999 5.56568 10.4943 5.58792 10.3831C5.72136 9.78814 5.86037 9.18764 5.99937 8.59269C6.01605 8.53153 6.00493 8.49817 5.95489 8.45369C5.49339 8.05335 5.03746 7.65302 4.58152 7.25269C4.5148 7.19152 4.47588 7.11924 4.44252 7.03584C4.4314 6.98024 4.4314 6.94132 4.4314 6.89683Z" fill="#34A303"/>
<path d="M0 9.98274C0 7.43617 0 4.8896 0 2.34303C0 1.37 0.411454 0.641612 1.29552 0.224598C1.57353 0.0911531 1.90714 0.0133104 2.21852 0.0133104C5.91604 -0.00337016 9.61357 -0.00337016 13.3111 0.00775022C14.5121 0.00775022 15.4573 0.947423 15.5129 2.14286C15.5185 2.22071 15.5185 2.29299 15.5185 2.37083C15.5185 7.45841 15.5185 12.5404 15.524 17.628C15.524 18.4175 15.246 19.0625 14.6233 19.5463C13.8393 20.1634 12.7273 20.1523 11.9433 19.524C10.759 18.5732 9.58576 17.6113 8.40701 16.6494C7.96219 16.288 7.5563 16.2936 7.11148 16.655C5.93828 17.6113 4.7762 18.5732 3.58632 19.5129C2.33528 20.4971 0.489297 19.8743 0.0834028 18.3397C0.0166806 18.0951 0.00556019 17.8337 0.00556019 17.578C0 15.0481 0 12.5182 0 9.98274ZM14.184 10.0161C14.184 7.44729 14.184 4.88404 14.184 2.31523C14.184 1.69249 13.8226 1.33664 13.1999 1.33664C9.56908 1.33664 5.94384 1.33664 2.31304 1.33664C2.22408 1.33664 2.12955 1.33664 2.04615 1.35888C1.57909 1.45896 1.33445 1.80925 1.33445 2.35971C1.33445 7.44173 1.33445 12.5293 1.33445 17.6113C1.33445 17.6892 1.33445 17.7614 1.34001 17.8393C1.36781 18.1618 1.52905 18.3953 1.81818 18.5399C2.2074 18.7345 2.54101 18.6177 2.85238 18.3619C3.99778 17.4278 5.14317 16.4937 6.29413 15.5652C7.21712 14.8201 8.31248 14.8312 9.22991 15.5707C9.85821 16.0767 10.481 16.5882 11.1037 17.0942C11.6486 17.5335 12.1879 17.9839 12.7384 18.4175C13.2499 18.8179 13.9894 18.5955 14.1507 17.995C14.184 17.8615 14.184 17.7225 14.184 17.5835C14.184 15.0648 14.184 12.5404 14.184 10.0161Z" fill="#34A303"/>
</svg>
