<svg width="20" height="20" viewBox="0 0 20 20" fill="none" xmlns="http://www.w3.org/2000/svg">
<path d="M7.53283 19.9918C7.06714 19.8284 6.89557 19.5016 6.90374 19.0196C6.92008 16.5931 6.90374 14.1667 6.91191 11.7402C6.91191 10.7925 6.56878 10.0327 5.85799 9.40359C4.69786 8.38235 3.52139 7.36928 2.39394 6.30719C0.825313 4.84477 0.0491693 3.00654 0.000149703 0.857843C-0.00802023 0.334967 0.318777 0 0.841653 0C6.94459 0 13.0475 0 19.1505 0C19.4773 0 19.7305 0.122549 19.8939 0.408497C19.9266 0.465686 19.9511 0.539216 19.9511 0.612745C20.0165 1.6585 19.8286 2.65523 19.4364 3.62745C18.9707 4.77941 18.26 5.75163 17.3368 6.56863C16.242 7.54085 15.1472 8.51307 14.0524 9.48529C13.3988 10.0654 13.072 10.8007 13.0802 11.6748C13.0802 13.1291 13.0802 14.5752 13.0884 16.0294C13.0884 16.3971 12.9495 16.6585 12.6472 16.8627C11.1685 17.8431 9.68969 18.8317 8.21093 19.8121C8.09655 19.8856 7.97401 19.9346 7.85146 20C7.74525 19.9918 7.63904 19.9918 7.53283 19.9918ZM1.60963 1.56863C1.82205 3.00654 2.41845 4.22386 3.47237 5.18791C4.61616 6.23366 5.78446 7.2549 6.93642 8.28431C7.97401 9.19935 8.47237 10.3513 8.47237 11.732C8.4642 13.6601 8.47237 15.5882 8.47237 17.5082C8.47237 17.5735 8.47237 17.6471 8.47237 17.7369C8.52956 17.7043 8.56224 17.6879 8.58675 17.6716C9.52629 17.0425 10.474 16.4216 11.4054 15.7843C11.4707 15.7435 11.5116 15.6291 11.5116 15.5474C11.5198 14.2647 11.5198 12.982 11.5116 11.6993C11.5034 10.335 12.01 9.19118 13.0312 8.28431C13.9462 7.47549 14.8613 6.6585 15.7763 5.84967C16.3073 5.37582 16.8466 4.9183 17.2632 4.33824C17.8515 3.5049 18.2273 2.58987 18.3662 1.56863C12.7861 1.56863 7.2142 1.56863 1.60963 1.56863Z" fill="#0C4467"/>
</svg>
