<svg width="20" height="35" viewBox="0 0 20 35" fill="none" xmlns="http://www.w3.org/2000/svg">
<path d="M15.2889 1.2116C13.5472 0.378624 11.6238 0.015145 8.88257 0C8.3525 0 6.44423 0.0757248 4.47539 0.923842C2.09763 1.9537 0.734585 3.34704 0.143932 5.30073C-0.249837 6.61835 0.174222 7.72393 1.29495 8.22371C2.3551 8.70835 3.06691 8.6932 4.08162 7.23929C5.33865 5.43704 7.38322 4.43747 9.47322 4.43747C10.5182 4.43747 11.5784 4.67979 12.5477 5.20987C13.9713 5.96711 14.6982 7.209 14.6679 8.81436C14.6377 10.2228 14.0319 11.4496 12.8354 12.5703C12.1236 13.2367 11.3209 13.9031 10.2608 14.7209C7.76185 16.6292 6.58054 19.1735 6.64112 22.4903C6.67141 23.7321 6.88344 24.5045 7.32264 24.868C7.7467 25.2164 8.56453 25.2921 9.80641 25.08C9.92757 25.0649 10.0639 25.0195 10.2153 24.974C10.8969 24.7469 11.124 24.4288 11.1543 23.717C11.1695 23.4747 11.1695 23.2172 11.1695 22.9598C11.1695 22.7023 11.1695 22.4448 11.1846 22.1874C11.2452 20.4003 11.9267 18.9009 13.214 17.7045C13.6381 17.3107 14.0621 16.9472 14.5922 16.5383C16.5459 14.9481 17.8787 13.4336 18.7722 11.7676C19.8627 9.75335 20.1201 7.60277 19.484 5.6945C18.8328 3.78624 17.3637 2.19602 15.2889 1.2116Z" fill="#0C4467"/>
<path d="M8.86743 28.4119C8.85229 28.4119 8.83714 28.4119 8.822 28.4119C7.97388 28.4119 7.1712 28.7451 6.5654 29.3358C5.94446 29.9416 5.59612 30.7594 5.58098 31.6378C5.56583 32.5465 5.91417 33.3946 6.55026 34.0459C7.15605 34.6668 7.95874 35 8.80686 35C8.80686 35 8.80685 35 8.822 35C10.5788 35 12.0782 33.4855 12.0933 31.7135C12.0933 29.9113 10.6545 28.4271 8.86743 28.4119Z" fill="#0C4467"/>
</svg>
