<svg width="20" height="20" viewBox="0 0 20 20" fill="none" xmlns="http://www.w3.org/2000/svg">
<path d="M19.7376 9.5261L19.7001 9.48862L18.2918 8.08032C15.7537 5.54217 13.1299 2.91299 10.5435 0.337349C10.4525 0.246319 10.3347 0.171352 10.2169 0.085676C10.174 0.0589023 10.1365 0.0321285 10.0937 0H9.91165C9.86881 0.0267738 9.82597 0.0589023 9.78849 0.085676C9.66533 0.165997 9.55288 0.246319 9.46185 0.337349C6.16867 3.61446 3.19143 6.59705 0.342704 9.45649C0.246319 9.55288 0.171352 9.67604 0.0910308 9.80455C0.064257 9.85275 0.0321285 9.90094 0 9.94913V10.0562C0.0267738 10.0937 0.0481928 10.1312 0.0749665 10.1687C0.144578 10.2811 0.21419 10.3829 0.294511 10.4418C0.487282 10.5917 0.733601 10.49 0.883534 10.3614C0.921017 10.3293 0.958501 10.2918 1.01205 10.2436C1.03882 10.2169 1.07095 10.1901 1.10308 10.158L1.46185 9.82597V11.5556C1.46185 14.1258 1.46185 16.6961 1.46185 19.2664C1.46185 19.3574 1.46185 19.4431 1.4672 19.5288C1.48862 19.7965 1.67604 19.9786 1.94378 20C1.96519 20 1.99197 20 2.0241 20H3.35207C8.21955 20 13.0924 20 17.9598 20C18.249 20 18.4471 19.8661 18.5114 19.6359C18.5328 19.5502 18.5382 19.4485 18.5382 19.336C18.5382 18.5596 18.5382 17.7885 18.5382 17.012V9.84204L18.8969 10.1633C18.9344 10.1954 18.9665 10.2276 18.9933 10.2544C19.0469 10.3025 19.0897 10.3454 19.1379 10.3829C19.3574 10.5649 19.6466 10.5542 19.8394 10.3614C20.0321 10.1633 20.0375 9.87416 19.8501 9.65462C19.8179 9.60643 19.7805 9.56359 19.7376 9.5261ZM12.3909 18.9505H7.6091V12.7122H12.3909V18.9505ZM17.51 17.2851V18.9505H13.4297V17.4404C13.4297 15.7537 13.4297 14.0669 13.4297 12.3802C13.4297 12.2784 13.4297 12.1928 13.419 12.1071C13.3922 11.8929 13.2155 11.7162 13.0013 11.6894C12.9264 11.6787 12.8514 11.6787 12.7925 11.6787C10.929 11.6787 9.07095 11.6787 7.2075 11.6787C6.76305 11.6787 6.6506 11.8661 6.60241 12.0268C6.57564 12.1285 6.57028 12.2517 6.57028 12.3588C6.57028 14.0187 6.57028 15.6734 6.57028 17.3333V18.9612H2.48461V17.2905C2.48461 14.581 2.48461 11.7858 2.48996 9.02811C2.48996 8.86747 2.55957 8.69076 2.66667 8.58367C4.7925 6.44712 6.96118 4.2838 9.05489 2.19009L9.73494 1.51004C9.75636 1.48862 9.78313 1.46185 9.81526 1.43507C9.83133 1.42436 9.84204 1.4083 9.8581 1.39224L10.0027 1.25837L10.2008 1.44578C10.2383 1.48327 10.2758 1.51539 10.3133 1.55288L10.9612 2.2008C13.0442 4.2838 15.1968 6.43641 17.3066 8.55689C17.4029 8.65328 17.51 8.82463 17.51 9.00669C17.51 11.7644 17.51 14.5703 17.51 17.2851Z" fill="#0C4467"/>
</svg>
