<svg width="13" height="11" viewBox="0 0 13 11" fill="none" xmlns="http://www.w3.org/2000/svg">
<path d="M6.06788 2.02105C6.18329 1.89075 6.28008 1.77163 6.38803 1.65622C6.96505 1.03825 7.65748 0.625034 8.50253 0.52452C9.95439 0.349553 11.3281 1.14249 11.879 2.54967C12.2848 3.58459 12.2029 4.60089 11.7041 5.5874C11.2797 6.42874 10.684 7.13605 10.0177 7.78752C9.05721 8.73309 7.9888 9.54464 6.84965 10.2594C6.34708 10.5758 5.79612 10.5833 5.29356 10.2631C3.90127 9.38084 2.59832 8.37943 1.50385 7.13605C0.923103 6.47713 0.427983 5.76237 0.159948 4.91359C-0.309113 3.43196 0.271629 1.7009 1.66392 0.911682C2.77701 0.278822 4.18419 0.375612 5.24144 1.20205C5.50203 1.4068 5.71795 1.66739 5.9562 1.90192C5.99343 1.93543 6.02693 1.97265 6.06788 2.02105Z" fill="#A3D2EE"/>
</svg>
