<svg width="20" height="15" viewBox="0 0 20 15" fill="none" xmlns="http://www.w3.org/2000/svg">
<path d="M10.0938 2.28091C10.2669 2.08552 10.412 1.90689 10.5739 1.73383C11.4392 0.807146 12.4775 0.187496 13.7447 0.03677C15.9219 -0.225604 17.9818 0.963454 18.808 3.07362C19.4165 4.62553 19.2937 6.14954 18.5456 7.62888C17.9092 8.89051 17.016 9.95118 16.0168 10.9281C14.5765 12.346 12.9743 13.563 11.2661 14.6348C10.5125 15.1093 9.68629 15.1205 8.93266 14.6404C6.84483 13.3174 4.89097 11.8157 3.24974 9.95118C2.37888 8.96309 1.63642 7.89126 1.23448 6.61846C0.531095 4.39665 1.40195 1.80082 3.48978 0.617343C5.15893 -0.331671 7.26909 -0.186527 8.8545 1.05277C9.24527 1.35981 9.56905 1.75058 9.92633 2.10227C9.98215 2.15251 10.0324 2.20834 10.0938 2.28091Z" fill="#CCCCCC"/>
</svg>
