<svg width="13" height="10" viewBox="0 0 13 10" fill="none" xmlns="http://www.w3.org/2000/svg">
<path d="M6.06788 1.52105C6.18329 1.39075 6.28008 1.27163 6.38803 1.15622C6.96505 0.538254 7.65748 0.125034 8.50253 0.0245205C9.95439 -0.150447 11.3281 0.64249 11.879 2.04967C12.2848 3.08459 12.2029 4.10089 11.7041 5.0874C11.2797 5.92874 10.684 6.63605 10.0177 7.28752C9.05721 8.23309 7.9888 9.04464 6.84965 9.7594C6.34708 10.0758 5.79612 10.0833 5.29356 9.76312C3.90127 8.88084 2.59832 7.87943 1.50385 6.63605C0.923103 5.97713 0.427983 5.26237 0.159948 4.41359C-0.309113 2.93196 0.271629 1.2009 1.66392 0.411682C2.77701 -0.221178 4.18419 -0.124388 5.24144 0.702053C5.50203 0.906802 5.71795 1.16739 5.9562 1.40192C5.99343 1.43543 6.02693 1.47265 6.06788 1.52105Z" fill="#CCCCCC"/>
</svg>
