<svg width="120" height="32" viewBox="0 0 120 32" fill="none" xmlns="http://www.w3.org/2000/svg">
<path d="M62.4777 26.142V6.12216H77.2991V9.27261H66.0045V14.4563H76.0268V17.6068H66.0045V22.9916H77.4554V26.142H62.4777Z" fill="#003C63"/>
<path d="M90.5804 26.4772C87.6786 26.4772 85.2679 25.4717 83.3259 23.4831C81.3839 21.4945 80.4018 19.0367 80.4018 16.1097C80.4018 13.2051 81.3839 10.7696 83.3259 8.75869C85.2679 6.74777 87.7455 5.76465 90.7366 5.76465C92.4777 5.76465 93.9509 6.03277 95.1563 6.56902C96.3616 7.10526 97.5 7.86495 98.5714 8.89275L96.317 11.4846C94.5313 9.83118 92.6563 9.00447 90.7143 9.00447C88.817 9.00447 87.2322 9.69712 85.9822 11.0601C84.7322 12.423 84.1071 14.1212 84.1071 16.1321C84.1071 18.1207 84.7322 19.7964 85.9822 21.1817C87.2322 22.567 88.817 23.2597 90.692 23.2597C91.8304 23.2597 92.8348 23.0362 93.7277 22.6117C94.5982 22.1872 95.5134 21.5392 96.4509 20.6455L98.7054 22.9245C97.5893 24.1087 96.3839 25.0025 95.1339 25.5834C93.8839 26.1867 92.3661 26.4772 90.5804 26.4772Z" fill="#003C63"/>
<path d="M109.844 26.4772C108.036 26.4772 106.473 26.1867 105.179 25.6281C103.884 25.0472 102.701 24.1981 101.607 23.0586L103.862 20.7349C104.821 21.6063 105.737 22.2542 106.629 22.7011C107.522 23.1256 108.549 23.3491 109.732 23.3491C111.406 23.3491 112.857 22.8128 114.04 21.718C115.246 20.6231 115.982 19.2378 116.25 17.5621H107.277V14.5457H116.228C115.915 12.9146 115.179 11.5516 113.996 10.5238C112.813 9.47368 111.384 8.95978 109.755 8.95978C107.746 8.95978 105.848 9.7418 104.063 11.3282L102.054 8.91509C103.125 7.90963 104.241 7.1276 105.446 6.59136C106.629 6.05511 108.058 5.78699 109.71 5.78699C112.679 5.78699 115.134 6.79245 117.076 8.80337C119.018 10.8143 120 13.2497 120 16.1321C120 19.0591 119.04 21.4945 117.098 23.5055C115.156 25.4717 112.746 26.4772 109.844 26.4772Z" fill="#003C63"/>
<path fill-rule="evenodd" clip-rule="evenodd" d="M24.2634 16.1767C24.1741 7.4404 31.1161 0.22342 39.8661 0.0223271C48.683 -0.178765 56.0045 6.81478 56.2054 15.6405C56.4063 24.4662 49.4196 31.7949 40.6027 31.996C36.5402 32.0854 32.7902 30.6554 29.9107 28.2199C31.6741 26.2314 33.0134 23.8853 33.817 21.2934C35.3795 23.1926 37.7679 24.3769 40.4018 24.3098C44.9777 24.1981 48.5938 20.3997 48.5045 15.8193C48.3929 11.2388 44.5982 7.61915 40.0223 7.70853C35.2679 7.82024 32.0089 11.5293 31.9643 16.1767H24.2634Z" fill="#003C63"/>
<path fill-rule="evenodd" clip-rule="evenodd" d="M15.9598 0C19.7098 0 23.1696 1.29593 25.8929 3.4856C24.1964 5.49653 22.9018 7.88729 22.1652 10.5015C20.6473 8.78103 18.4152 7.6862 15.9598 7.6862C11.3839 7.6862 7.67857 11.3952 7.67857 15.998C7.67857 20.5785 11.3839 24.2875 15.9598 24.2875C20.4688 24.2875 24.1518 20.6678 24.2411 16.1768H31.942V15.9533C31.942 24.7791 24.7545 31.9737 15.9375 31.9737C7.14286 31.9737 0 24.8237 0 15.998C0 7.14995 7.14286 0 15.9598 0Z" fill="#68B437"/>
</svg>
