<svg width="16" height="15" viewBox="0 0 16 15" fill="none" xmlns="http://www.w3.org/2000/svg">
<path d="M15.0015 14.2672C14.9171 14.5351 14.785 14.77 14.5208 14.8984C14.1906 15.0599 13.8787 15.0268 13.5851 14.814C13.519 14.7663 13.4603 14.7039 13.4016 14.6452C11.4788 12.7223 9.55592 10.7995 7.63308 8.87665C7.59271 8.83629 7.54868 8.79592 7.47528 8.7262C7.43492 8.78124 7.40923 8.83629 7.36887 8.87665C5.43501 10.8142 3.50116 12.7444 1.5673 14.6782C1.22236 15.0232 0.815042 15.0929 0.437078 14.8764C-0.0179468 14.6158 -0.142712 13.9957 0.183879 13.5847C0.235252 13.5186 0.293965 13.4599 0.352678 13.4012C2.27553 11.4784 4.19837 9.55552 6.12122 7.63267C6.16158 7.59231 6.21663 7.56662 6.26433 7.52993C6.26433 7.50791 6.26433 7.48956 6.268 7.46754C6.2203 7.43452 6.16525 7.40883 6.12489 7.36847C4.19103 5.43828 2.25718 3.50442 0.323322 1.57057C-0.0252859 1.22196 -0.0950075 0.807302 0.128835 0.429338C0.264609 0.194486 0.484782 0.0807302 0.734312 0C0.83339 0 0.928798 0 1.02788 0C1.30676 0.0697215 1.50492 0.24953 1.6994 0.447686C3.58923 2.34118 5.48272 4.231 7.37254 6.12449C7.4129 6.16485 7.43859 6.2199 7.47162 6.2676C7.49363 6.2676 7.51198 6.2676 7.534 6.2676C7.56702 6.2199 7.59271 6.16485 7.63308 6.12449C9.5229 4.231 11.4164 2.34118 13.3062 0.447686C13.5007 0.253199 13.6988 0.0697215 13.9777 0C14.0768 0 14.1722 0 14.2713 0C14.3447 0.0293564 14.4144 0.0513738 14.4878 0.0843998C14.774 0.209165 14.9171 0.451355 15.0052 0.733911C15.0052 0.832989 15.0052 0.928397 15.0052 1.02748C14.9392 1.30636 14.7557 1.50452 14.5575 1.699C12.6604 3.58516 10.7705 5.47865 8.87705 7.36847C8.83669 7.40883 8.78165 7.43452 8.73394 7.46754C8.73394 7.48956 8.73394 7.50791 8.73394 7.52993C8.78165 7.56295 8.83669 7.58864 8.87705 7.629C10.7669 9.51515 12.653 11.405 14.5428 13.2911C14.741 13.4893 14.9282 13.6911 15.0015 13.9737C15.0015 14.0727 15.0015 14.1718 15.0015 14.2672Z" fill="#FF0000"/>
</svg>
