<svg width="18" height="20" viewBox="0 0 18 20" fill="none" xmlns="http://www.w3.org/2000/svg">
<path d="M8.47738 20C8.16423 19.9061 7.8302 19.8486 7.5327 19.7077C6.72372 19.3267 6.20179 18.69 5.96171 17.8236C5.94605 17.7766 5.93561 17.7244 5.91473 17.6566C5.83645 17.6566 5.76338 17.6566 5.68509 17.6566C4.00449 17.6566 2.32389 17.6566 0.648513 17.6566C0.371893 17.6566 0.163123 17.5522 0.0535193 17.2964C-0.0560849 17.0459 0.0117653 16.8267 0.194439 16.6336C0.204877 16.6231 0.210097 16.6127 0.220535 16.6075C1.42618 15.3183 2.22995 13.81 2.55354 12.072C2.66836 11.4509 2.7049 10.8089 2.73621 10.1722C2.77275 9.37883 2.71012 8.58029 2.7884 7.79218C2.99196 5.75667 4.02015 4.22222 5.76338 3.16793C6.11828 2.95394 6.51495 2.81302 6.89595 2.65644C7.00034 2.61469 7.04209 2.57293 7.04209 2.45289C7.04209 2.11364 7.02643 1.77439 7.07863 1.44036C7.21955 0.558304 8.03375 -0.0627862 8.93146 0.00506397C9.81351 0.0676949 10.5233 0.808828 10.5494 1.69088C10.5599 1.93619 10.5599 2.18671 10.5494 2.43201C10.5442 2.56771 10.5964 2.61469 10.7164 2.66166C12.7728 3.40801 14.109 4.83287 14.6622 6.95188C14.7875 7.43727 14.8188 7.95398 14.8396 8.45502C14.8762 9.30054 14.8344 10.1461 14.8866 10.9916C14.9962 12.7244 15.5912 14.2849 16.609 15.6889C16.8438 16.0073 17.1048 16.3048 17.371 16.6023C17.5537 16.811 17.6528 17.0302 17.5328 17.2964C17.4127 17.5678 17.1831 17.6566 16.896 17.6566C15.2311 17.6513 13.5609 17.6566 11.896 17.6566C11.8229 17.6566 11.7551 17.6566 11.6768 17.6566C11.6089 17.8497 11.5567 18.048 11.4732 18.2255C11.0244 19.2015 10.2728 19.786 9.20808 19.9635C9.17154 19.9687 9.13501 19.9843 9.09847 20C8.89492 20 8.68615 20 8.47738 20ZM1.86982 16.4718C6.49407 16.4718 11.0922 16.4718 15.6904 16.4718C15.6852 16.4457 15.6904 16.4353 15.6852 16.4248C15.6434 16.3674 15.6017 16.3048 15.5651 16.2474C14.4691 14.6764 13.8271 12.9331 13.7123 11.0177C13.6601 10.1826 13.6914 9.33708 13.6705 8.502C13.6601 8.17319 13.6444 7.83915 13.587 7.51034C13.1695 4.96857 10.5964 3.13661 8.05984 3.56459C5.59636 3.97691 3.90532 5.9811 3.90532 8.48112C3.90532 9.09699 3.91054 9.71808 3.90532 10.334C3.88445 12.2442 3.39384 14.0187 2.40218 15.6576C2.23516 15.929 2.05771 16.19 1.86982 16.4718ZM7.1517 17.6618C7.37612 18.3768 8.10682 18.857 8.88449 18.8257C9.58387 18.7944 10.2885 18.262 10.4189 17.6618C9.33334 17.6618 8.24774 17.6618 7.1517 17.6618ZM9.36466 2.35373C9.36988 2.30153 9.37509 2.24412 9.37509 2.18671C9.37509 2.00925 9.38553 1.83702 9.36466 1.65957C9.32812 1.37773 9.0776 1.16896 8.79576 1.16374C8.51914 1.15852 8.25296 1.36207 8.21642 1.63869C8.19033 1.87355 8.2112 2.11364 8.2112 2.34329C8.60265 2.35373 8.97843 2.35373 9.36466 2.35373Z" fill="#0C4467"/>
<path d="M0.00130481 8.17318C0.090032 5.86627 0.925112 3.87774 2.53786 2.21802C2.78838 1.96228 3.15373 1.94662 3.39382 2.17105C3.6339 2.40069 3.6339 2.76604 3.38338 3.027C2.84058 3.58024 2.3865 4.19089 2.02637 4.87983C1.46791 5.955 1.18607 7.09801 1.17042 8.30888C1.17042 8.39761 1.15998 8.49155 1.13388 8.57506C1.05037 8.84124 0.784192 9.00826 0.51801 8.97694C0.246609 8.94041 0.027401 8.71598 0.00652406 8.44458C-0.00391444 8.35585 0.00130481 8.26191 0.00130481 8.17318Z" fill="#0C4467"/>
<path d="M17.5797 8.16274C17.5797 8.23581 17.5797 8.30366 17.5797 8.37673C17.5745 8.7212 17.3188 8.97694 16.9899 8.97694C16.6716 8.97694 16.4367 8.7212 16.4054 8.38716C16.3428 7.78173 16.3114 7.16586 16.181 6.57087C15.8835 5.2243 15.2102 4.07085 14.2603 3.07919C14.1663 2.98002 14.0776 2.85476 14.0359 2.72428C13.9576 2.46332 14.0828 2.20236 14.3125 2.07709C14.5473 1.94661 14.8292 1.98837 15.0275 2.19192C15.5233 2.69297 15.9618 3.24099 16.3219 3.84642C17.1152 5.17733 17.5275 6.61784 17.5797 8.16274Z" fill="#0C4467"/>
</svg>
