<svg width="12" height="10" viewBox="0 0 12 10" fill="none" xmlns="http://www.w3.org/2000/svg">
<path d="M8.94136 5.71138C8.82884 5.71138 8.76632 5.71138 8.69965 5.71138C6.06582 5.71138 3.43199 5.70717 0.798166 5.71559C0.310575 5.71559 0.0646955 5.40832 0.0105187 5.11789C-0.0603279 4.72222 0.235561 4.32656 0.631468 4.29709C0.714817 4.28867 0.798166 4.29288 0.881515 4.29288C3.4945 4.29288 6.10333 4.29288 8.71632 4.29288C8.77466 4.29288 8.83717 4.29288 8.93719 4.29288C8.86634 4.21712 8.82467 4.17081 8.78299 4.12872C7.83698 3.18586 6.89097 2.23879 5.9408 1.29593C5.73242 1.08968 5.61573 0.858175 5.68241 0.559322C5.79493 0.0542181 6.37838 -0.16466 6.78679 0.138402C6.8493 0.184703 6.90348 0.239423 6.96182 0.294143C8.33708 1.66213 9.70817 3.03433 11.0793 4.40232C11.4793 4.8022 11.4793 5.19365 11.0793 5.59352C9.69983 6.96993 8.31624 8.34634 6.93681 9.72275C6.61592 10.0426 6.24502 10.0889 5.93663 9.84482C5.62407 9.60068 5.56989 9.15451 5.81577 8.84303C5.86578 8.77989 5.91996 8.72517 5.97414 8.67045C6.91181 7.7318 7.85365 6.79736 8.79133 5.86291C8.833 5.82503 8.87051 5.78715 8.94136 5.71138Z" fill="#CCCCCC"/>
</svg>
