<svg width="14" height="10" viewBox="0 0 14 10" fill="none" xmlns="http://www.w3.org/2000/svg">
<path d="M0 4.86641C0.0590253 4.61063 0.157401 4.37453 0.354152 4.19745C0.826354 3.77772 1.46252 3.80395 1.93472 4.27615C2.91847 5.25991 3.90223 6.23711 4.87943 7.22086C4.91878 7.26021 4.94501 7.30612 4.99748 7.3717C5.0565 7.29956 5.08274 7.25365 5.12209 7.2143C7.39784 4.93855 9.67359 2.66279 11.9559 0.380481C12.2969 0.0394457 12.6904 -0.0851633 13.1561 0.0591208C13.8513 0.275547 14.1267 1.19372 13.6742 1.75774C13.6217 1.82332 13.5627 1.88891 13.5037 1.94793C10.9525 4.51225 8.40127 7.0569 5.85006 9.60811C5.50903 9.94914 5.10897 10.1 4.64332 9.92947C4.47281 9.87044 4.30885 9.75895 4.18424 9.63434C2.90536 8.36858 1.63303 7.08969 0.36071 5.81737C0.170518 5.62718 0.0590253 5.39763 0 5.14186C0 5.05004 0 4.95822 0 4.86641Z" fill="#34A303"/>
</svg>
