<svg width="10" height="12" viewBox="0 0 10 12" fill="none" xmlns="http://www.w3.org/2000/svg">
<path d="M4.52162 0C2.02203 0 0 2.02203 0 4.52162C0 5.82222 0.650301 7.00089 1.29044 8.08811C2.07283 9.43962 3.00764 10.6995 4.09486 11.8172C4.32856 12.0609 4.71478 12.0609 4.95854 11.8172C5.91367 10.8722 6.75703 9.80531 7.46829 8.66729C8.23037 7.43771 9.0534 6.01518 9.0534 4.52162C9.04324 2.03219 7.02121 0 4.52162 0ZM4.52162 7.14315C3.00764 7.14315 1.77817 5.91367 1.77817 4.39969C1.77817 2.88571 3.00764 1.65623 4.52162 1.65623C6.0356 1.65623 7.26508 2.87555 7.26508 4.39969C7.26508 5.92383 6.0356 7.14315 4.52162 7.14315Z" fill="#34A303"/>
</svg>
