<svg width="47" height="35" viewBox="0 0 47 35" fill="none" xmlns="http://www.w3.org/2000/svg">
<path d="M36.3521 10.3973H14.2311C11.3643 10.3973 9.03668 8.06968 9.03668 5.20293C9.03668 2.33619 11.3643 0 14.2311 0H36.3521C39.2188 0 41.5465 2.32763 41.5465 5.19438C41.5465 8.06112 39.2188 10.3973 36.3521 10.3973ZM14.2311 2.31051C12.6394 2.31051 11.3472 3.60269 11.3472 5.19438C11.3472 6.78606 12.6394 8.07824 14.2311 8.07824H36.3521C37.9438 8.07824 39.2359 6.78606 39.2359 5.19438C39.2359 3.60269 37.9438 2.31051 36.3521 2.31051H14.2311Z" fill="white"/>
<path d="M30.7812 22.6944H14.2311C11.3643 22.6944 9.03668 20.3668 9.03668 17.5C9.03668 14.6333 11.3643 12.3056 14.2311 12.3056H30.7812C33.6479 12.3056 35.9756 14.6333 35.9756 17.5C35.9756 20.3668 33.6479 22.6944 30.7812 22.6944ZM14.2311 14.6076C12.6394 14.6076 11.3472 15.8998 11.3472 17.4914C11.3472 19.0831 12.6394 20.3753 14.2311 20.3753H30.7812C32.3729 20.3753 33.665 19.0831 33.665 17.4914C33.665 15.8998 32.3729 14.6076 30.7812 14.6076H14.2311Z" fill="white"/>
<path d="M41.6235 35H14.2311C11.3643 35 9.03668 32.6724 9.03668 29.8056C9.03668 26.9389 11.3643 24.6112 14.2311 24.6112H41.6235C44.4902 24.6112 46.8179 26.9389 46.8179 29.8056C46.8179 32.6638 44.4902 35 41.6235 35ZM14.2311 26.9132C12.6394 26.9132 11.3472 28.2054 11.3472 29.7971C11.3472 31.3888 12.6394 32.6809 14.2311 32.6809H41.6235C43.2152 32.6809 44.5073 31.3888 44.5073 29.7971C44.5073 28.2054 43.2152 26.9132 41.6235 26.9132H14.2311Z" fill="white"/>
<path d="M2.978 8.17237C4.6227 8.17237 5.95599 6.83908 5.95599 5.19438C5.95599 3.54968 4.6227 2.21638 2.978 2.21638C1.33329 2.21638 0 3.54968 0 5.19438C0 6.83908 1.33329 8.17237 2.978 8.17237Z" fill="white"/>
<path d="M2.978 20.478C4.6227 20.478 5.95599 19.1447 5.95599 17.5C5.95599 15.8553 4.6227 14.522 2.978 14.522C1.33329 14.522 0 15.8553 0 17.5C0 19.1447 1.33329 20.478 2.978 20.478Z" fill="white"/>
<path d="M2.978 32.7751C4.6227 32.7751 5.95599 31.4418 5.95599 29.7971C5.95599 28.1524 4.6227 26.8191 2.978 26.8191C1.33329 26.8191 0 28.1524 0 29.7971C0 31.4418 1.33329 32.7751 2.978 32.7751Z" fill="white"/>
</svg>
