<svg width="17" height="15" viewBox="0 0 17 15" fill="none" xmlns="http://www.w3.org/2000/svg">
<path d="M0.00195312 5.77812C0.0937573 5.48638 0.248677 5.23392 0.558516 5.14977C0.799502 5.08244 1.0577 5.07122 1.3159 5.04878C2.62985 4.93097 3.93806 4.81315 5.252 4.70095C5.35528 4.68973 5.41266 4.65045 5.45283 4.55508C6.0266 3.23106 6.61185 1.90704 7.18563 0.58302C7.30038 0.313727 7.47825 0.117369 7.77088 0.0332147C8.20121 -0.0846006 8.61433 0.117369 8.79794 0.538138C9.18811 1.43017 9.57828 2.3222 9.96844 3.21984C10.1635 3.66866 10.3643 4.11748 10.5537 4.5663C10.5881 4.65045 10.6398 4.69534 10.7316 4.70095C11.6955 4.7851 12.6595 4.86925 13.6234 4.95341C14.1513 4.99829 14.6791 5.04878 15.2128 5.09928C15.58 5.13294 15.8382 5.32369 15.9529 5.66591C16.0734 6.01936 15.9701 6.32792 15.6833 6.57477C14.5759 7.52852 13.4685 8.47665 12.3554 9.42478C12.2578 9.50894 12.2176 9.58187 12.2463 9.71651C12.5791 11.1191 12.9062 12.5216 13.2275 13.9242C13.3136 14.2889 13.2275 14.6087 12.9119 14.8331C12.5963 15.0575 12.2635 15.0463 11.9308 14.8555C10.6684 14.115 9.40041 13.38 8.1381 12.6338C8.02908 12.5721 7.95449 12.5665 7.84547 12.6338C6.5889 13.3744 5.3266 14.1093 4.07003 14.8443C3.64543 15.0911 3.18067 15.0294 2.90526 14.6816C2.72739 14.4628 2.68723 14.2159 2.75034 13.9466C3.07739 12.5441 3.39871 11.1415 3.7315 9.73896C3.76592 9.5987 3.73724 9.51455 3.62248 9.41917C2.53231 8.47665 1.43639 7.52852 0.334743 6.58599C0.174086 6.44574 0.076544 6.27182 0.00195312 6.08107C0.00195312 5.98009 0.00195312 5.8791 0.00195312 5.77812Z" fill="#A3D2EE"/>
</svg>
