<svg width="22" height="20" viewBox="0 0 22 20" fill="none" xmlns="http://www.w3.org/2000/svg">
<path d="M0 7.70415C0.122406 7.31518 0.328965 6.97856 0.742084 6.86636C1.0634 6.77659 1.40766 6.76163 1.75193 6.73171C3.50386 6.57462 5.24814 6.41754 7.00007 6.26793C7.13777 6.25297 7.21428 6.20061 7.26783 6.07344C8.03287 4.30808 8.8132 2.54272 9.57824 0.77736C9.73124 0.418303 9.9684 0.156491 10.3586 0.0442863C10.9323 -0.112801 11.4832 0.156491 11.728 0.717517C12.2482 1.90689 12.7684 3.09627 13.2887 4.29312C13.5488 4.89155 13.8165 5.48997 14.069 6.0884C14.1149 6.20061 14.1837 6.26045 14.3062 6.26793C15.5914 6.38013 16.8767 6.49234 18.1619 6.60455C18.8658 6.66439 19.5696 6.73171 20.2811 6.79903C20.7707 6.84392 21.115 7.09825 21.268 7.55455C21.4286 8.02581 21.2909 8.43723 20.9084 8.76636C19.4319 10.038 17.9554 11.3022 16.4712 12.5664C16.3411 12.6786 16.2876 12.7758 16.3258 12.9554C16.7696 14.8254 17.2056 16.6955 17.6341 18.5656C17.7488 19.0518 17.6341 19.4782 17.2133 19.7774C16.7925 20.0766 16.3488 20.0617 15.9051 19.8073C14.222 18.8199 12.5313 17.84 10.8482 16.8451C10.7028 16.7628 10.6034 16.7554 10.458 16.8451C8.7826 17.8325 7.09952 18.8125 5.4241 19.7924C4.85797 20.1215 4.23829 20.0392 3.87108 19.5755C3.63392 19.2837 3.58036 18.9546 3.66452 18.5955C4.10059 16.7254 4.52901 14.8554 4.97273 12.9853C5.01863 12.7983 4.98038 12.6861 4.82737 12.5589C3.3738 11.3022 1.91259 10.038 0.44372 8.78132C0.22951 8.59432 0.0994545 8.36242 0 8.10809C0 7.97345 0 7.8388 0 7.70415Z" fill="#A3D2EE"/>
</svg>
