<svg width="11" height="10" viewBox="0 0 11 10" fill="none" xmlns="http://www.w3.org/2000/svg">
<path d="M0 3.76648C0.0598427 3.57631 0.160827 3.41174 0.362797 3.35689C0.519884 3.313 0.688191 3.30569 0.856499 3.29106C1.713 3.21426 2.56576 3.13746 3.42226 3.06432C3.48958 3.05701 3.52698 3.03141 3.55316 2.96924C3.92718 2.10617 4.30868 1.24311 4.68269 0.380042C4.7575 0.204504 4.87344 0.0765069 5.06419 0.0216511C5.3447 -0.0551471 5.614 0.0765069 5.73368 0.350786C5.98801 0.932258 6.24234 1.51373 6.49668 2.09886C6.62384 2.39142 6.75475 2.68399 6.87817 2.97655C6.90061 3.03141 6.93428 3.06066 6.99412 3.06432C7.62247 3.11918 8.25082 3.17403 8.87916 3.22889C9.22326 3.25815 9.56736 3.29106 9.91519 3.32397C10.1546 3.34591 10.3229 3.47025 10.3977 3.69333C10.4762 3.92373 10.4089 4.12487 10.2219 4.28578C9.50003 4.90748 8.77818 5.52552 8.05259 6.14356C7.989 6.19842 7.96282 6.24596 7.98152 6.33373C8.19845 7.24799 8.41164 8.16226 8.62109 9.07652C8.67719 9.31423 8.62109 9.52268 8.41538 9.66896C8.20967 9.81524 7.99274 9.80793 7.77581 9.68359C6.95298 9.20086 6.1264 8.72179 5.30356 8.2354C5.2325 8.19517 5.18388 8.19151 5.11281 8.2354C4.29372 8.71813 3.47088 9.1972 2.65178 9.67628C2.37501 9.83719 2.07205 9.79696 1.89253 9.57022C1.77658 9.4276 1.7504 9.26669 1.79154 9.09115C2.00473 8.17688 2.21418 7.26262 2.43111 6.34836C2.45355 6.25693 2.43485 6.20207 2.36005 6.1399C1.64942 5.52552 0.935043 4.90748 0.21693 4.29309C0.112205 4.20167 0.0486222 4.0883 0 3.96396C0 3.89813 0 3.8323 0 3.76648Z" fill="#A3D2EE"/>
</svg>
