<svg width="14" height="11" viewBox="0 0 14 11" fill="none" xmlns="http://www.w3.org/2000/svg">
<path d="M0 9.66799C0.0228385 9.4755 0.0456769 9.27974 0.0750407 9.09051C0.349102 7.25038 1.21696 5.73977 2.65579 4.56522C3.63132 3.76913 4.7504 3.27974 5.99347 3.08724C6.3752 3.02852 6.76345 3.01546 7.14844 3.00241C7.53996 2.98936 7.92821 2.99915 8.3393 2.99915C8.3393 2.95021 8.3393 2.90453 8.3393 2.85886C8.3393 2.22591 8.33604 1.58969 8.3393 0.956737C8.3393 0.620685 8.62968 0.411875 8.91679 0.535856C8.98204 0.56522 9.04077 0.614159 9.09297 0.666362C10.4568 2.02688 11.8205 3.39067 13.1811 4.75445C13.3964 4.96979 13.3931 5.19817 13.1778 5.41351C11.814 6.77729 10.4535 8.13781 9.08971 9.5016C8.94942 9.64189 8.78628 9.71041 8.59379 9.62884C8.40456 9.55054 8.33278 9.39067 8.33278 9.18839C8.33604 8.51954 8.33278 7.8507 8.33278 7.16228C8.28384 7.16228 8.23816 7.16228 8.19248 7.16228C7.53996 7.16228 6.89069 7.1525 6.23816 7.16228C4.11745 7.19491 2.41435 8.06277 1.12887 9.74956C1.01468 9.89638 0.916801 10.0562 0.818922 10.2161C0.71778 10.3825 0.5938 10.5065 0.381729 10.4902C0.182708 10.4804 0.0652528 10.3499 0 10.1639C0 9.99752 0 9.83439 0 9.66799ZM1.03426 8.53259C1.04078 8.53586 1.04731 8.53912 1.05383 8.54238C1.0832 8.51302 1.11582 8.48365 1.14519 8.45429C2.54486 7.07419 4.22512 6.35967 6.19249 6.33684C7.02446 6.32705 7.8597 6.33357 8.69167 6.33684C9.00162 6.33684 9.16475 6.49997 9.16475 6.80992C9.16475 7.24385 9.16475 7.67778 9.16475 8.11171C9.16475 8.1476 9.17128 8.18349 9.17128 8.20633C10.2186 7.15902 11.2594 6.11824 12.2838 5.09377C11.2528 4.05625 10.2121 3.01546 9.17128 1.97468C9.17128 2.00078 9.17128 2.0432 9.17128 2.08561C9.17128 2.50975 9.17128 2.93716 9.17128 3.3613C9.17128 3.67126 9.00814 3.83439 8.69493 3.83439C8.17943 3.83439 7.66067 3.83439 7.14518 3.83439C6.57095 3.83765 6.00325 3.89964 5.44861 4.05299C4.48939 4.31726 3.63458 4.78382 2.89722 5.45592C2.08483 6.19002 1.5106 7.08072 1.15497 8.11498C1.10603 8.25201 1.07341 8.3923 1.03426 8.53259Z" fill="#0C4467"/>
</svg>
