<svg width="21" height="16" viewBox="0 0 21 16" fill="none" xmlns="http://www.w3.org/2000/svg">
<path d="M0 8.29331C0.0885827 7.90946 0.23622 7.55513 0.531496 7.28938C1.24016 6.65946 2.19488 6.69883 2.90354 7.40749C4.37992 8.88387 5.8563 10.3504 7.32283 11.8268C7.38189 11.8858 7.42126 11.9547 7.5 12.0532C7.58858 11.9449 7.62795 11.876 7.68701 11.8169C11.1024 8.40158 14.5177 4.98623 17.9429 1.56103C18.4547 1.04922 19.0453 0.862211 19.7441 1.07875C20.7874 1.40355 21.2008 2.7815 20.5217 3.62796C20.4429 3.72639 20.3543 3.82481 20.2657 3.91339C16.437 7.76182 12.6083 11.5807 8.77953 15.4095C8.26772 15.9213 7.66732 16.1476 6.9685 15.8917C6.7126 15.8032 6.46654 15.6358 6.27953 15.4488C4.36024 13.5492 2.45079 11.6299 0.541339 9.72048C0.255906 9.43505 0.0885827 9.09056 0 8.7067C0 8.56891 0 8.43111 0 8.29331Z" fill="#34A303"/>
</svg>
