<svg width="16" height="15" viewBox="0 0 16 15" fill="none" xmlns="http://www.w3.org/2000/svg">
<path d="M14.3862 15C14.2997 15 14.2133 15 14.1182 15C13.8934 14.9395 13.7291 14.7925 13.5648 14.6369C12.3285 13.3919 11.0836 12.147 9.83862 10.9107C9.80404 10.8761 9.76945 10.8415 9.73487 10.8156C9.71758 10.8156 9.71758 10.8156 9.70893 10.8242C9.69164 10.8415 9.66571 10.8501 9.64841 10.8674C8.21326 11.9135 6.63112 12.2853 4.88473 11.9654C2.55043 11.5418 0.613833 9.66571 0.129683 7.3487C0.0864553 7.03747 0.0518732 6.74352 0 6.44092C0 6.16427 0 5.89626 0 5.6196C0.00864553 5.57637 0.0172911 5.5245 0.0259366 5.48127C0.121037 5.0317 0.164265 4.57349 0.311239 4.14121C1.29683 1.21038 4.21902 -0.475502 7.2536 0.121039C10.9885 0.85591 13.1326 5.00577 11.5504 8.47262C11.3516 8.91355 11.0836 9.31989 10.8242 9.7781C10.8329 9.78675 10.8761 9.81268 10.9193 9.84726C11.6715 10.5994 12.415 11.3429 13.1671 12.0951C13.7032 12.6311 14.2392 13.1585 14.7752 13.7032C15.1556 14.0922 15.0519 14.7061 14.5677 14.9308C14.5072 14.9568 14.4467 14.9741 14.3862 15ZM1.49568 6.01729C1.48703 8.50721 3.51873 10.5562 6.02594 10.5648C8.51585 10.5821 10.5648 8.54179 10.5821 6.04323C10.5908 3.54467 8.55043 1.50432 6.05187 1.49568C3.55331 1.48703 1.50432 3.52738 1.49568 6.01729Z" fill="#0C4467"/>
</svg>
