<svg width="26" height="16" viewBox="0 0 26 16" fill="none" xmlns="http://www.w3.org/2000/svg">
<path d="M0 7.79384C2.2781 4.03697 5.40883 1.3592 9.75853 0.366696C13.955 -0.592505 17.7918 0.353373 21.229 2.93123C22.8676 4.16353 24.2132 5.66228 25.3122 7.39417C25.5787 7.81383 25.5787 8.18019 25.3122 8.59318C23.2673 11.7505 20.5895 14.1552 16.9592 15.3009C12.5362 16.6998 8.39301 15.967 4.61615 13.2826C2.8443 12.0237 1.39217 10.445 0.233139 8.59984C0.153206 8.46662 0.0799334 8.32673 0 8.19351C0 8.06029 0 7.92706 0 7.79384ZM12.9159 1.61232C11.4172 1.61899 10.1049 1.82548 8.83264 2.2851C5.88177 3.35088 3.63031 5.29592 1.84513 7.82715C1.74521 7.96703 1.77186 8.05363 1.85845 8.17353C2.78435 9.49909 3.86345 10.6848 5.14904 11.6573C8.76603 14.4017 12.7227 15.161 17.0192 13.5757C19.8568 12.5299 21.995 10.5715 23.7136 8.12024C23.8002 8.00034 23.7469 7.92706 23.6869 7.84047C22.9142 6.7214 22.015 5.70891 20.9825 4.82298C18.6178 2.78468 15.9134 1.63231 12.9159 1.61232Z" fill="#0C4467"/>
<path d="M12.7627 3.211C15.4005 3.211 17.552 5.35588 17.552 7.99367C17.552 10.6315 15.4071 12.783 12.7693 12.783C10.1315 12.783 7.97998 10.6381 7.97998 8.00033C7.97998 5.36254 10.1249 3.211 12.7627 3.211ZM12.776 11.1843C14.5279 11.1777 15.96 9.74555 15.9533 7.98701C15.9533 6.23514 14.5145 4.803 12.7627 4.803C10.9975 4.803 9.56533 6.2418 9.57199 8.01366C9.57865 9.75887 11.0241 11.191 12.776 11.1843Z" fill="#0C4467"/>
</svg>
