<svg width="21" height="20" viewBox="0 0 21 20" fill="none" xmlns="http://www.w3.org/2000/svg">
<path d="M20.5422 10.2813C20.4914 10.4483 20.4479 10.6153 20.3898 10.775C20.1792 11.334 19.7872 11.7188 19.2499 11.9802C18.0157 12.5683 16.7887 13.1709 15.5545 13.7662C11.4453 15.7555 7.33601 17.7448 3.22676 19.734C2.24664 20.2059 1.2157 20.0462 0.555027 19.2839C-0.0257853 18.6087 -0.149208 17.8391 0.177499 17.0042C0.656669 15.799 1.13584 14.6011 1.61501 13.3959C2.04336 12.3214 2.47171 11.2542 2.90732 10.1797C2.95814 10.049 2.95814 9.94734 2.90732 9.81666C2.01432 7.58053 1.12132 5.33715 0.2138 3.10102C-0.112907 2.28788 -0.0766064 1.5183 0.475165 0.814069C1.11406 -0.00632851 2.1813 -0.224133 3.15416 0.240517C4.38113 0.828589 5.60084 1.42392 6.8278 2.01925C10.9298 4.00128 15.0318 5.99056 19.1338 7.97258C19.867 8.32833 20.3607 8.85106 20.5132 9.67146C20.5132 9.69324 20.5277 9.70776 20.5422 9.72228C20.5422 9.91104 20.5422 10.0998 20.5422 10.2813ZM18.4513 9.28667C18.4586 9.27215 18.4586 9.26489 18.4658 9.25037C18.4078 9.22133 18.3497 9.19229 18.2916 9.16325C15.4093 7.7693 12.527 6.37535 9.64474 4.9814C7.29245 3.83429 4.94016 2.70171 2.58787 1.56913C2.41363 1.48926 2.19582 1.43118 2.01432 1.46022C1.52063 1.54008 1.3246 2.01199 1.53515 2.54199C2.40637 4.71277 3.27759 6.89082 4.14154 9.06887C4.20689 9.23585 4.27949 9.29393 4.46825 9.29393C9.05667 9.28667 13.6523 9.28667 18.2408 9.28667C18.3134 9.28667 18.386 9.28667 18.4513 9.28667ZM18.4586 10.7677C18.4586 10.7532 18.4586 10.7387 18.4513 10.7314C18.4078 10.7314 18.3642 10.7242 18.3206 10.7242C13.6814 10.7242 9.04215 10.7242 4.40291 10.7169C4.25771 10.7169 4.21415 10.775 4.16332 10.8912C3.53895 12.4594 2.91458 14.0276 2.28294 15.5957C2.02158 16.2492 1.76021 16.8953 1.50611 17.5487C1.31008 18.0424 1.59323 18.5288 2.10144 18.5579C2.26116 18.5651 2.44267 18.5071 2.59513 18.4345C6.79876 16.4089 10.9951 14.376 15.1915 12.3432C16.2805 11.8205 17.3695 11.2977 18.4586 10.7677Z" fill="#34A303"/>
</svg>
