<svg width="26" height="20" viewBox="0 0 26 20" fill="none" xmlns="http://www.w3.org/2000/svg">
<path d="M4.77932 15.4359L5.92844 14.2868C5.63463 14.0909 5.34082 13.882 5.04701 13.6665C3.78689 12.7067 2.72917 11.5511 1.82162 10.2518C1.73675 10.1342 1.71063 10.0494 1.80857 9.91225C3.55837 7.43119 5.76521 5.51815 8.65761 4.48002C9.90468 4.02951 11.1909 3.82711 12.66 3.82058C13.783 3.82711 14.8668 3.99687 15.9049 4.31679L17.152 3.06973C14.7819 2.16871 12.2486 1.9859 9.56516 2.59964C5.30165 3.56595 2.23296 6.19718 0 9.87961C0 10.0102 0 10.1408 0 10.2714C0.0783494 10.4019 0.143641 10.539 0.228519 10.6696C1.36459 12.4782 2.78141 14.0256 4.52468 15.2596C4.60956 15.3184 4.69444 15.3771 4.77932 15.4359Z" fill="#0C4467"/>
<path d="M24.8041 9.48786C23.7268 7.79029 22.4079 6.32123 20.8018 5.11335C20.6124 4.96971 20.4231 4.83259 20.2337 4.70201L19.0911 5.84461C19.5939 6.17759 20.0836 6.54975 20.5602 6.96109C21.5722 7.82946 22.4536 8.82189 23.211 9.91878C23.2698 10.0102 23.322 10.0755 23.2371 10.193C21.5526 12.5957 19.4568 14.5153 16.6754 15.5404C14.018 16.5197 11.4912 16.585 9.10159 15.8276L7.86106 17.0682C10.6229 18.1259 13.5479 18.1977 16.6101 17.2314C20.1684 16.1084 22.7931 13.7514 24.7976 10.6566C25.0718 10.2583 25.0653 9.89267 24.8041 9.48786Z" fill="#0C4467"/>
<path d="M12.5098 6.94803C12.7448 6.94803 12.9734 6.97414 13.1888 7.02638L14.4163 5.7989C13.8287 5.53774 13.1823 5.38757 12.5033 5.38757C9.91773 5.38757 7.81535 7.49647 7.81535 10.082C7.81535 10.761 7.96552 11.4074 8.22669 11.9885L9.45416 10.761C9.40846 10.5456 9.38234 10.3236 9.37581 10.0951C9.37581 8.35832 10.7861 6.94803 12.5098 6.94803Z" fill="#0C4467"/>
<path d="M12.5229 13.2029C12.2813 13.2029 12.0462 13.1768 11.8177 13.1246L10.5902 14.352C11.1779 14.6197 11.8308 14.7634 12.5163 14.7634C15.1019 14.7634 17.2042 12.6545 17.2042 10.0689C17.2042 9.38339 17.0541 8.737 16.7929 8.14938L15.5654 9.37686C15.6177 9.59885 15.6438 9.82737 15.6438 10.0624C15.6372 11.7926 14.24 13.1964 12.5229 13.2029Z" fill="#0C4467"/>
<path d="M9.87855 13.9538L11.0146 12.8177L15.252 8.58031L16.3881 7.44424L18.4121 5.42021L19.5678 4.26456L21.4155 2.41682C21.631 2.20136 21.631 1.84226 21.4155 1.62026L20.9519 1.1567C20.8409 1.0457 20.6973 0.993469 20.5537 0.993469C20.41 0.993469 20.2664 1.0457 20.1554 1.1567L17.929 3.38313L16.7211 4.59102L15.1345 6.17759L13.9984 7.31366L9.76103 11.5511L8.62496 12.6871L6.61399 14.7112L5.45181 15.8733L3.58449 17.7407C3.36902 17.9561 3.36902 18.3152 3.58449 18.5372L4.04805 19.0008C4.15905 19.1118 4.30269 19.164 4.44633 19.164C4.58997 19.164 4.73361 19.1118 4.8446 19.0008L7.09062 16.7548L8.29851 15.5469L9.87855 13.9538Z" fill="#0C4467"/>
</svg>
