<svg width="46" height="35" viewBox="0 0 46 35" fill="none" xmlns="http://www.w3.org/2000/svg">
<path d="M28.2779 17.9352C31.1237 15.8775 32.6736 13.1543 32.6561 9.64297C32.6386 6.97228 31.6491 4.69563 29.7577 2.82177C25.9837 -0.92595 19.8806 -0.943462 16.1066 2.78674C13.9087 4.95832 12.928 7.62025 13.217 10.685C13.5059 13.7585 15.0295 16.1402 17.5689 17.9265C13.4884 19.7566 10.7915 22.76 9.45174 27.0418C9.45174 27.0418 9.1803 28.0401 8.97015 28.8982C8.81253 29.5462 9.0402 30.2292 9.55682 30.6582C15.5111 35.5618 28.8908 37.243 36.3075 30.7283C36.7628 30.3255 36.9817 29.7213 36.8766 29.1259C36.4739 26.7967 34.7051 21.3239 28.2779 17.9352ZM15.8001 9.73053C15.8176 5.79017 19.0312 2.60286 22.954 2.63789C26.9032 2.67291 30.0642 5.86022 30.0467 9.79183C30.0292 13.7322 26.8419 16.8932 22.8927 16.8845C18.9436 16.8582 15.7826 13.6621 15.8001 9.73053ZM33.6631 29.1959C30.4407 31.2624 26.6842 32.3745 22.2273 32.3657C18.9699 32.3307 15.3886 31.2712 12.1224 29.1609C11.8335 28.9682 11.7459 28.7931 11.816 28.4516C12.9981 22.9351 18.1643 19.0911 23.7771 19.5552C28.8296 19.9755 32.8225 23.4255 33.987 28.3378C34.0834 28.7318 34.0308 28.9595 33.6631 29.1959Z" fill="white"/>
<path d="M12.8317 15.0194C12.0962 15.4047 11.2555 15.6236 10.3536 15.6236C7.43778 15.6148 5.08232 13.2418 5.09983 10.326C5.11734 7.4101 7.49907 5.04589 10.3974 5.0634C11.0979 5.07216 11.7634 5.21226 12.3764 5.45744C12.6566 4.76568 12.963 4.28408 13.3308 3.77622C13.3396 3.76746 13.3483 3.7587 13.3571 3.7587C10.7214 2.55908 7.50783 3.03193 5.33625 5.17723C3.70757 6.7884 2.98079 8.75858 3.19095 11.0352C3.4011 13.3119 4.53067 15.0807 6.41328 16.4029C3.38359 17.7601 1.39589 19.9842 0.39767 23.1628C0.39767 23.1628 0.196274 23.8983 0.0386595 24.5375C-0.0839295 25.0191 0.0911976 25.527 0.476477 25.8422C2.14894 27.217 4.60948 28.2502 7.32394 28.7406C7.50783 28.0576 7.63042 27.4972 7.89311 26.9105C6.05427 26.5953 4.1629 25.8685 2.38536 24.7214C2.16645 24.5813 2.10516 24.45 2.1577 24.196C3.03333 20.1068 6.85986 17.261 11.0279 17.6025C12.0173 17.6813 12.9543 17.9265 13.8212 18.303C13.9262 18.2242 14.0401 18.1366 14.1451 18.0578C14.3378 17.9002 14.5392 17.7426 14.7318 17.585C14.0313 16.867 13.4709 15.9913 12.9193 15.1595C12.8842 15.1069 12.858 15.0632 12.8317 15.0194Z" fill="white"/>
<path d="M32.9888 15.0194C33.7243 15.4047 34.565 15.6236 35.4669 15.6236C38.3827 15.6148 40.7382 13.2418 40.7207 10.326C40.7032 7.4101 38.3214 5.04589 35.4231 5.0634C34.7226 5.07216 34.0571 5.21226 33.4441 5.45744C33.1639 4.76568 32.8575 4.28408 32.4897 3.77622C32.4809 3.76746 32.4722 3.7587 32.4634 3.7587C35.0991 2.55908 38.3127 3.03193 40.4842 5.17723C42.1129 6.7884 42.8397 8.75858 42.6296 11.0352C42.4194 13.3119 41.2898 15.0807 39.4072 16.4029C42.4369 17.7601 44.4246 19.9842 45.4228 23.1628C45.4228 23.1628 45.6242 23.8983 45.7818 24.5375C45.9044 25.0191 45.7293 25.527 45.344 25.8422C43.6716 27.217 41.211 28.2502 38.4966 28.7406C38.3127 28.0576 38.1901 27.4972 37.9274 26.9105C39.7662 26.5953 41.6576 25.8685 43.4351 24.7214C43.654 24.5813 43.7153 24.45 43.6628 24.196C42.7872 20.1068 38.9606 17.261 34.7926 17.6025C33.8032 17.6813 32.8662 17.9265 31.9993 18.303C31.8943 18.2242 31.7804 18.1366 31.6754 18.0578C31.4827 17.9002 31.2813 17.7426 31.0887 17.585C31.7892 16.867 32.3496 15.9913 32.9012 15.1595C32.9275 15.1069 32.9625 15.0632 32.9888 15.0194Z" fill="white"/>
</svg>
