<svg width="32" height="40" viewBox="0 0 32 40" fill="none" xmlns="http://www.w3.org/2000/svg">
<path d="M22.1271 20.4931C25.3802 18.1409 27.1519 15.028 27.1318 11.0142C27.1218 7.9613 25.9807 5.35884 23.8187 3.21682C19.5046 -1.05722 12.528 -1.07724 8.21396 3.18679C5.70159 5.65912 4.59054 8.702 4.91084 12.2053C5.24116 15.7186 6.9828 18.4412 9.88554 20.4831C5.22114 22.5751 2.13823 26.0083 0.60678 30.903C0.60678 30.903 0.296487 32.044 0.0562598 33.025C-0.12391 33.7657 0.136335 34.5464 0.726893 35.0369C7.53332 40.6422 22.8278 42.564 31.3058 35.1169C31.8263 34.6565 32.0765 33.9659 31.9564 33.2852C31.496 30.6227 29.4841 24.3668 22.1271 20.4931ZM7.86363 11.1143C7.88365 6.61002 11.5571 2.96658 16.0414 3.00662C20.5556 3.04665 24.169 6.6901 24.149 11.1843C24.129 15.6886 20.4856 19.302 15.9713 19.292C11.467 19.262 7.84361 15.6085 7.86363 11.1143ZM28.2829 33.3653C24.5994 35.7275 20.3154 36.9987 15.2106 36.9787C11.4971 36.9387 7.4032 35.7275 3.65966 33.3152C3.32935 33.095 3.22926 32.8948 3.30933 32.5045C4.66061 26.1985 10.5662 21.8044 16.9822 22.3349C22.7577 22.8153 27.322 26.7591 28.6533 32.3744C28.7634 32.8348 28.7033 33.095 28.2829 33.3653Z" fill="#0C4467"/>
</svg>
