<svg width="10" height="12" viewBox="0 0 10 12" fill="none" xmlns="http://www.w3.org/2000/svg">
<path d="M2.87579 11.5004C2.9216 11.5126 2.96938 11.5161 3.01747 11.5104C3.11689 11.4987 3.20723 11.4474 3.26886 11.3681L5.48453 8.52001L6.71366 10.3754C6.76269 10.463 6.87059 10.5453 6.99616 10.5789C7.25987 10.6496 7.53249 10.4917 7.60353 10.2266L9.94546 1.48641C10.0165 1.22128 9.85933 0.948279 9.59562 0.877619C9.48402 0.847715 9.36539 0.857823 9.25367 0.907599L1.21958 5.62091C1.08852 5.71564 1.0218 5.81217 0.99204 5.92324C0.921119 6.18792 1.07817 6.46136 1.34188 6.53202L3.48771 7.107L1.35181 9.85434C1.22556 10.0167 1.2536 10.2499 1.41445 10.3779L2.73941 11.4317C2.78 11.4638 2.82653 11.4872 2.87579 11.5004ZM5.6056 7.51563C5.57854 7.50838 5.55123 7.50419 5.52249 7.50322C5.40206 7.49881 5.28623 7.55223 5.21245 7.6479L2.90925 10.6086L2.17149 10.0217L4.42656 7.12104C4.50377 7.02211 4.52618 6.8904 4.48609 6.77151C4.44592 6.6526 4.34879 6.56127 4.22754 6.52878L2.11461 5.96262L9.06159 1.88727L7.02481 9.48863L5.82127 7.67076C5.77049 7.59393 5.69306 7.53906 5.6056 7.51563ZM7.33068 9.95057C7.33879 9.96099 7.3457 9.97165 7.35213 9.98267L7.33068 9.95057ZM1.6337 6.24483L1.62884 6.24353L1.6337 6.24483Z" fill="#34A303"/>
</svg>
